<?xml version="1.0" encoding="UTF-8"?>
<svg xmlns="http://www.w3.org/2000/svg" width="91.98mm" height="91.98mm" viewBox="0 0 91.9788 91.9788">
  <!-- Encoder wheel laser template — all dimensions in mm -->
  <style>
    .cut     { fill: none; stroke: #FF0000; stroke-width: 0.15; }
    .engrave { fill: none; stroke: #0000FF; stroke-width: 0.10; stroke-dasharray: 0.5 0.5; }
  </style>
  <g transform="translate(45.9894,45.9894)">
    <circle cx="0" cy="0" r="41.9894" class="cut" />
    <circle cx="0" cy="0" r="5.0000" class="cut" />
    <path d="M 18.8894,-2.6000 L 18.8894,2.6000 L 39.0894,2.6000 L 39.0894,-2.6000 Z" class="cut" />
    <path d="M 18.9187,2.3775 L 17.5728,7.4003 L 37.0845,12.6285 L 38.4304,7.6057 Z" class="cut" />
    <path d="M 17.6587,7.1930 L 15.0587,11.6964 L 32.5524,21.7964 L 35.1524,17.2930 Z" class="cut" />
    <path d="M 15.1953,11.5183 L 11.5183,15.1953 L 25.8019,29.4788 L 29.4788,25.8019 Z" class="cut" />
    <path d="M 11.6964,15.0587 L 7.1930,17.6587 L 17.2930,35.1524 L 21.7964,32.5524 Z" class="cut" />
    <path d="M 7.4003,17.5728 L 2.3775,18.9187 L 7.6057,38.4304 L 12.6285,37.0845 Z" class="cut" />
    <path d="M 2.6000,18.8894 L -2.6000,18.8894 L -2.6000,39.0894 L 2.6000,39.0894 Z" class="cut" />
    <path d="M -2.3775,18.9187 L -7.4003,17.5728 L -12.6285,37.0845 L -7.6057,38.4304 Z" class="cut" />
    <path d="M -7.1930,17.6587 L -11.6964,15.0587 L -21.7964,32.5524 L -17.2930,35.1524 Z" class="cut" />
    <path d="M -11.5183,15.1953 L -15.1953,11.5183 L -29.4788,25.8019 L -25.8019,29.4788 Z" class="cut" />
    <path d="M -15.0587,11.6964 L -17.6587,7.1930 L -35.1524,17.2930 L -32.5524,21.7964 Z" class="cut" />
    <path d="M -17.5728,7.4003 L -18.9187,2.3775 L -38.4304,7.6057 L -37.0845,12.6285 Z" class="cut" />
    <path d="M -18.8894,2.6000 L -18.8894,-2.6000 L -39.0894,-2.6000 L -39.0894,2.6000 Z" class="cut" />
    <path d="M -18.9187,-2.3775 L -17.5728,-7.4003 L -37.0845,-12.6285 L -38.4304,-7.6057 Z" class="cut" />
    <path d="M -17.6587,-7.1930 L -15.0587,-11.6964 L -32.5524,-21.7964 L -35.1524,-17.2930 Z" class="cut" />
    <path d="M -15.1953,-11.5183 L -11.5183,-15.1953 L -25.8019,-29.4788 L -29.4788,-25.8019 Z" class="cut" />
    <path d="M -11.6964,-15.0587 L -7.1930,-17.6587 L -17.2930,-35.1524 L -21.7964,-32.5524 Z" class="cut" />
    <path d="M -7.4003,-17.5728 L -2.3775,-18.9187 L -7.6057,-38.4304 L -12.6285,-37.0845 Z" class="cut" />
    <path d="M -2.6000,-18.8894 L 2.6000,-18.8894 L 2.6000,-39.0894 L -2.6000,-39.0894 Z" class="cut" />
    <path d="M 2.3775,-18.9187 L 7.4003,-17.5728 L 12.6285,-37.0845 L 7.6057,-38.4304 Z" class="cut" />
    <path d="M 7.1930,-17.6587 L 11.6964,-15.0587 L 21.7964,-32.5524 L 17.2930,-35.1524 Z" class="cut" />
    <path d="M 11.5183,-15.1953 L 15.1953,-11.5183 L 29.4788,-25.8019 L 25.8019,-29.4788 Z" class="cut" />
    <path d="M 15.0587,-11.6964 L 17.6587,-7.1930 L 35.1524,-17.2930 L 32.5524,-21.7964 Z" class="cut" />
    <path d="M 17.5728,-7.4003 L 18.9187,-2.3775 L 38.4304,-7.6057 L 37.0845,-12.6285 Z" class="cut" />
    <circle cx="0" cy="0" r="18.9894" class="engrave" />
    <line x1="40.4894" y1="0.0000" x2="41.6894" y2="0.0000" class="engrave" />
    <line x1="39.1097" y1="10.4794" x2="40.2689" y2="10.7900" class="engrave" />
    <line x1="35.0648" y1="20.2447" x2="36.1041" y2="20.8447" class="engrave" />
    <line x1="28.6303" y1="28.6303" x2="29.4788" y2="29.4788" class="engrave" />
    <line x1="20.2447" y1="35.0648" x2="20.8447" y2="36.1041" class="engrave" />
    <line x1="10.4794" y1="39.1097" x2="10.7900" y2="40.2689" class="engrave" />
    <line x1="0.0000" y1="40.4894" x2="0.0000" y2="41.6894" class="engrave" />
    <line x1="-10.4794" y1="39.1097" x2="-10.7900" y2="40.2689" class="engrave" />
    <line x1="-20.2447" y1="35.0648" x2="-20.8447" y2="36.1041" class="engrave" />
    <line x1="-28.6303" y1="28.6303" x2="-29.4788" y2="29.4788" class="engrave" />
    <line x1="-35.0648" y1="20.2447" x2="-36.1041" y2="20.8447" class="engrave" />
    <line x1="-39.1097" y1="10.4794" x2="-40.2689" y2="10.7900" class="engrave" />
    <line x1="-40.4894" y1="0.0000" x2="-41.6894" y2="0.0000" class="engrave" />
    <line x1="-39.1097" y1="-10.4794" x2="-40.2689" y2="-10.7900" class="engrave" />
    <line x1="-35.0648" y1="-20.2447" x2="-36.1041" y2="-20.8447" class="engrave" />
    <line x1="-28.6303" y1="-28.6303" x2="-29.4788" y2="-29.4788" class="engrave" />
    <line x1="-20.2447" y1="-35.0648" x2="-20.8447" y2="-36.1041" class="engrave" />
    <line x1="-10.4794" y1="-39.1097" x2="-10.7900" y2="-40.2689" class="engrave" />
    <line x1="-0.0000" y1="-40.4894" x2="-0.0000" y2="-41.6894" class="engrave" />
    <line x1="10.4794" y1="-39.1097" x2="10.7900" y2="-40.2689" class="engrave" />
    <line x1="20.2447" y1="-35.0648" x2="20.8447" y2="-36.1041" class="engrave" />
    <line x1="28.6303" y1="-28.6303" x2="29.4788" y2="-29.4788" class="engrave" />
    <line x1="35.0648" y1="-20.2447" x2="36.1041" y2="-20.8447" class="engrave" />
    <line x1="39.1097" y1="-10.4794" x2="40.2689" y2="-10.7900" class="engrave" />
  </g>
  <text x="4.0" y="90.48" font-family="monospace" font-size="1.8" fill="#444">Encoder wheel: 24 magnets, 20.0×5.0×2.0 mm, r_inner=18.99 mm, r_outer=38.99 mm, disc Ø=84.0 mm.  Red = cut, Blue = engrave.  Sheet thickness = 2.0 mm.</text>
</svg>