<?xml version="1.0" encoding="UTF-8"?>
<svg xmlns="http://www.w3.org/2000/svg" width="225.84mm" height="225.84mm" viewBox="0 0 225.8389 225.8389">
  <!-- Encoder wheel laser template — all dimensions in mm -->
  <style>
    .cut     { fill: none; stroke: #FF0000; stroke-width: 0.15; }
    .engrave { fill: none; stroke: #0000FF; stroke-width: 0.10; stroke-dasharray: 0.5 0.5; }
  </style>
  <g transform="translate(112.9194,112.9194)">
    <circle cx="0" cy="0" r="108.9194" class="cut" />
    <circle cx="0" cy="0" r="5.0000" class="cut" />
    <path d="M 85.8194,-2.6000 L 85.8194,2.6000 L 106.0194,2.6000 L 106.0194,-2.6000 Z" class="cut" />
    <path d="M 85.8254,2.3944 L 85.5231,7.5856 L 105.6889,8.7601 L 105.9912,3.5689 Z" class="cut" />
    <path d="M 85.5410,7.3806 L 84.9373,12.5454 L 105.0007,14.8905 L 105.6044,9.7257 Z" class="cut" />
    <path d="M 84.9671,12.3419 L 84.0642,17.4629 L 103.9573,20.9706 L 104.8602,15.8496 Z" class="cut" />
    <path d="M 84.1058,17.2614 L 82.9066,22.3212 L 102.5621,26.9797 L 103.7613,21.9198 Z" class="cut" />
    <path d="M 82.9598,22.1225 L 81.4684,27.1041 L 100.8198,32.8975 L 102.3112,27.9159 Z" class="cut" />
    <path d="M 81.5331,26.9088 L 79.7546,31.7952 L 98.7364,38.7040 L 100.5149,33.8176 Z" class="cut" />
    <path d="M 79.8306,31.6040 L 77.7710,36.3787 L 96.3189,44.3795 L 98.3786,39.6048 Z" class="cut" />
    <path d="M 77.8579,36.1922 L 75.5242,40.8391 L 93.5755,49.9049 L 95.9093,45.2580 Z" class="cut" />
    <path d="M 75.6218,40.6580 L 73.0218,45.1614 L 90.5155,55.2614 L 93.1155,50.7580 Z" class="cut" />
    <path d="M 73.1298,44.9863 L 70.2724,49.3308 L 87.1492,60.4309 L 90.0067,56.0864 Z" class="cut" />
    <path d="M 70.3904,49.1623 L 67.2851,53.3333 L 83.4880,65.3959 L 86.5933,61.2249 Z" class="cut" />
    <path d="M 67.4127,53.1719 L 64.0702,57.1554 L 79.5443,70.1397 L 82.8868,66.1563 Z" class="cut" />
    <path d="M 64.2070,57.0017 L 60.6386,60.7840 L 75.3315,74.6461 L 78.9000,70.8638 Z" class="cut" />
    <path d="M 60.7840,60.6386 L 57.0017,64.2070 L 70.8638,78.9000 L 74.6461,75.3315 Z" class="cut" />
    <path d="M 57.1554,64.0702 L 53.1719,67.4127 L 66.1563,82.8868 L 70.1397,79.5443 Z" class="cut" />
    <path d="M 53.3333,67.2851 L 49.1623,70.3904 L 61.2249,86.5933 L 65.3959,83.4880 Z" class="cut" />
    <path d="M 49.3308,70.2724 L 44.9863,73.1298 L 56.0864,90.0067 L 60.4309,87.1492 Z" class="cut" />
    <path d="M 45.1614,73.0218 L 40.6580,75.6218 L 50.7580,93.1155 L 55.2614,90.5155 Z" class="cut" />
    <path d="M 40.8391,75.5242 L 36.1922,77.8579 L 45.2580,95.9093 L 49.9049,93.5755 Z" class="cut" />
    <path d="M 36.3787,77.7710 L 31.6040,79.8306 L 39.6048,98.3786 L 44.3795,96.3189 Z" class="cut" />
    <path d="M 31.7952,79.7546 L 26.9088,81.5331 L 33.8176,100.5149 L 38.7040,98.7364 Z" class="cut" />
    <path d="M 27.1041,81.4684 L 22.1225,82.9598 L 27.9159,102.3112 L 32.8975,100.8198 Z" class="cut" />
    <path d="M 22.3212,82.9066 L 17.2614,84.1058 L 21.9198,103.7613 L 26.9797,102.5621 Z" class="cut" />
    <path d="M 17.4629,84.0642 L 12.3419,84.9671 L 15.8496,104.8602 L 20.9706,103.9573 Z" class="cut" />
    <path d="M 12.5454,84.9373 L 7.3806,85.5410 L 9.7257,105.6044 L 14.8905,105.0007 Z" class="cut" />
    <path d="M 7.5856,85.5231 L 2.3944,85.8254 L 3.5689,105.9912 L 8.7601,105.6889 Z" class="cut" />
    <path d="M 2.6000,85.8194 L -2.6000,85.8194 L -2.6000,106.0194 L 2.6000,106.0194 Z" class="cut" />
    <path d="M -2.3944,85.8254 L -7.5856,85.5231 L -8.7601,105.6889 L -3.5689,105.9912 Z" class="cut" />
    <path d="M -7.3806,85.5410 L -12.5454,84.9373 L -14.8905,105.0007 L -9.7257,105.6044 Z" class="cut" />
    <path d="M -12.3419,84.9671 L -17.4629,84.0642 L -20.9706,103.9573 L -15.8496,104.8602 Z" class="cut" />
    <path d="M -17.2614,84.1058 L -22.3212,82.9066 L -26.9797,102.5621 L -21.9198,103.7613 Z" class="cut" />
    <path d="M -22.1225,82.9598 L -27.1041,81.4684 L -32.8975,100.8198 L -27.9159,102.3112 Z" class="cut" />
    <path d="M -26.9088,81.5331 L -31.7952,79.7546 L -38.7040,98.7364 L -33.8176,100.5149 Z" class="cut" />
    <path d="M -31.6040,79.8306 L -36.3787,77.7710 L -44.3795,96.3189 L -39.6048,98.3786 Z" class="cut" />
    <path d="M -36.1922,77.8579 L -40.8391,75.5242 L -49.9049,93.5755 L -45.2580,95.9093 Z" class="cut" />
    <path d="M -40.6580,75.6218 L -45.1614,73.0218 L -55.2614,90.5155 L -50.7580,93.1155 Z" class="cut" />
    <path d="M -44.9863,73.1298 L -49.3308,70.2724 L -60.4309,87.1492 L -56.0864,90.0067 Z" class="cut" />
    <path d="M -49.1623,70.3904 L -53.3333,67.2851 L -65.3959,83.4880 L -61.2249,86.5933 Z" class="cut" />
    <path d="M -53.1719,67.4127 L -57.1554,64.0702 L -70.1397,79.5443 L -66.1563,82.8868 Z" class="cut" />
    <path d="M -57.0017,64.2070 L -60.7840,60.6386 L -74.6461,75.3315 L -70.8638,78.9000 Z" class="cut" />
    <path d="M -60.6386,60.7840 L -64.2070,57.0017 L -78.9000,70.8638 L -75.3315,74.6461 Z" class="cut" />
    <path d="M -64.0702,57.1554 L -67.4127,53.1719 L -82.8868,66.1563 L -79.5443,70.1397 Z" class="cut" />
    <path d="M -67.2851,53.3333 L -70.3904,49.1623 L -86.5933,61.2249 L -83.4880,65.3959 Z" class="cut" />
    <path d="M -70.2724,49.3308 L -73.1298,44.9863 L -90.0067,56.0864 L -87.1492,60.4309 Z" class="cut" />
    <path d="M -73.0218,45.1614 L -75.6218,40.6580 L -93.1155,50.7580 L -90.5155,55.2614 Z" class="cut" />
    <path d="M -75.5242,40.8391 L -77.8579,36.1922 L -95.9093,45.2580 L -93.5755,49.9049 Z" class="cut" />
    <path d="M -77.7710,36.3787 L -79.8306,31.6040 L -98.3786,39.6048 L -96.3189,44.3795 Z" class="cut" />
    <path d="M -79.7546,31.7952 L -81.5331,26.9088 L -100.5149,33.8176 L -98.7364,38.7040 Z" class="cut" />
    <path d="M -81.4684,27.1041 L -82.9598,22.1225 L -102.3112,27.9159 L -100.8198,32.8975 Z" class="cut" />
    <path d="M -82.9066,22.3212 L -84.1058,17.2614 L -103.7613,21.9198 L -102.5621,26.9797 Z" class="cut" />
    <path d="M -84.0642,17.4629 L -84.9671,12.3419 L -104.8602,15.8496 L -103.9573,20.9706 Z" class="cut" />
    <path d="M -84.9373,12.5454 L -85.5410,7.3806 L -105.6044,9.7257 L -105.0007,14.8905 Z" class="cut" />
    <path d="M -85.5231,7.5856 L -85.8254,2.3944 L -105.9912,3.5689 L -105.6889,8.7601 Z" class="cut" />
    <path d="M -85.8194,2.6000 L -85.8194,-2.6000 L -106.0194,-2.6000 L -106.0194,2.6000 Z" class="cut" />
    <path d="M -85.8254,-2.3944 L -85.5231,-7.5856 L -105.6889,-8.7601 L -105.9912,-3.5689 Z" class="cut" />
    <path d="M -85.5410,-7.3806 L -84.9373,-12.5454 L -105.0007,-14.8905 L -105.6044,-9.7257 Z" class="cut" />
    <path d="M -84.9671,-12.3419 L -84.0642,-17.4629 L -103.9573,-20.9706 L -104.8602,-15.8496 Z" class="cut" />
    <path d="M -84.1058,-17.2614 L -82.9066,-22.3212 L -102.5621,-26.9797 L -103.7613,-21.9198 Z" class="cut" />
    <path d="M -82.9598,-22.1225 L -81.4684,-27.1041 L -100.8198,-32.8975 L -102.3112,-27.9159 Z" class="cut" />
    <path d="M -81.5331,-26.9088 L -79.7546,-31.7952 L -98.7364,-38.7040 L -100.5149,-33.8176 Z" class="cut" />
    <path d="M -79.8306,-31.6040 L -77.7710,-36.3787 L -96.3189,-44.3795 L -98.3786,-39.6048 Z" class="cut" />
    <path d="M -77.8579,-36.1922 L -75.5242,-40.8391 L -93.5755,-49.9049 L -95.9093,-45.2580 Z" class="cut" />
    <path d="M -75.6218,-40.6580 L -73.0218,-45.1614 L -90.5155,-55.2614 L -93.1155,-50.7580 Z" class="cut" />
    <path d="M -73.1298,-44.9863 L -70.2724,-49.3308 L -87.1492,-60.4309 L -90.0067,-56.0864 Z" class="cut" />
    <path d="M -70.3904,-49.1623 L -67.2851,-53.3333 L -83.4880,-65.3959 L -86.5933,-61.2249 Z" class="cut" />
    <path d="M -67.4127,-53.1719 L -64.0702,-57.1554 L -79.5443,-70.1397 L -82.8868,-66.1563 Z" class="cut" />
    <path d="M -64.2070,-57.0017 L -60.6386,-60.7840 L -75.3315,-74.6461 L -78.9000,-70.8638 Z" class="cut" />
    <path d="M -60.7840,-60.6386 L -57.0017,-64.2070 L -70.8638,-78.9000 L -74.6461,-75.3315 Z" class="cut" />
    <path d="M -57.1554,-64.0702 L -53.1719,-67.4127 L -66.1563,-82.8868 L -70.1397,-79.5443 Z" class="cut" />
    <path d="M -53.3333,-67.2851 L -49.1623,-70.3904 L -61.2249,-86.5933 L -65.3959,-83.4880 Z" class="cut" />
    <path d="M -49.3308,-70.2724 L -44.9863,-73.1298 L -56.0864,-90.0067 L -60.4309,-87.1492 Z" class="cut" />
    <path d="M -45.1614,-73.0218 L -40.6580,-75.6218 L -50.7580,-93.1155 L -55.2614,-90.5155 Z" class="cut" />
    <path d="M -40.8391,-75.5242 L -36.1922,-77.8579 L -45.2580,-95.9093 L -49.9049,-93.5755 Z" class="cut" />
    <path d="M -36.3787,-77.7710 L -31.6040,-79.8306 L -39.6048,-98.3786 L -44.3795,-96.3189 Z" class="cut" />
    <path d="M -31.7952,-79.7546 L -26.9088,-81.5331 L -33.8176,-100.5149 L -38.7040,-98.7364 Z" class="cut" />
    <path d="M -27.1041,-81.4684 L -22.1225,-82.9598 L -27.9159,-102.3112 L -32.8975,-100.8198 Z" class="cut" />
    <path d="M -22.3212,-82.9066 L -17.2614,-84.1058 L -21.9198,-103.7613 L -26.9797,-102.5621 Z" class="cut" />
    <path d="M -17.4629,-84.0642 L -12.3419,-84.9671 L -15.8496,-104.8602 L -20.9706,-103.9573 Z" class="cut" />
    <path d="M -12.5454,-84.9373 L -7.3806,-85.5410 L -9.7257,-105.6044 L -14.8905,-105.0007 Z" class="cut" />
    <path d="M -7.5856,-85.5231 L -2.3944,-85.8254 L -3.5689,-105.9912 L -8.7601,-105.6889 Z" class="cut" />
    <path d="M -2.6000,-85.8194 L 2.6000,-85.8194 L 2.6000,-106.0194 L -2.6000,-106.0194 Z" class="cut" />
    <path d="M 2.3944,-85.8254 L 7.5856,-85.5231 L 8.7601,-105.6889 L 3.5689,-105.9912 Z" class="cut" />
    <path d="M 7.3806,-85.5410 L 12.5454,-84.9373 L 14.8905,-105.0007 L 9.7257,-105.6044 Z" class="cut" />
    <path d="M 12.3419,-84.9671 L 17.4629,-84.0642 L 20.9706,-103.9573 L 15.8496,-104.8602 Z" class="cut" />
    <path d="M 17.2614,-84.1058 L 22.3212,-82.9066 L 26.9797,-102.5621 L 21.9198,-103.7613 Z" class="cut" />
    <path d="M 22.1225,-82.9598 L 27.1041,-81.4684 L 32.8975,-100.8198 L 27.9159,-102.3112 Z" class="cut" />
    <path d="M 26.9088,-81.5331 L 31.7952,-79.7546 L 38.7040,-98.7364 L 33.8176,-100.5149 Z" class="cut" />
    <path d="M 31.6040,-79.8306 L 36.3787,-77.7710 L 44.3795,-96.3189 L 39.6048,-98.3786 Z" class="cut" />
    <path d="M 36.1922,-77.8579 L 40.8391,-75.5242 L 49.9049,-93.5755 L 45.2580,-95.9093 Z" class="cut" />
    <path d="M 40.6580,-75.6218 L 45.1614,-73.0218 L 55.2614,-90.5155 L 50.7580,-93.1155 Z" class="cut" />
    <path d="M 44.9863,-73.1298 L 49.3308,-70.2724 L 60.4309,-87.1492 L 56.0864,-90.0067 Z" class="cut" />
    <path d="M 49.1623,-70.3904 L 53.3333,-67.2851 L 65.3959,-83.4880 L 61.2249,-86.5933 Z" class="cut" />
    <path d="M 53.1719,-67.4127 L 57.1554,-64.0702 L 70.1397,-79.5443 L 66.1563,-82.8868 Z" class="cut" />
    <path d="M 57.0017,-64.2070 L 60.7840,-60.6386 L 74.6461,-75.3315 L 70.8638,-78.9000 Z" class="cut" />
    <path d="M 60.6386,-60.7840 L 64.2070,-57.0017 L 78.9000,-70.8638 L 75.3315,-74.6461 Z" class="cut" />
    <path d="M 64.0702,-57.1554 L 67.4127,-53.1719 L 82.8868,-66.1563 L 79.5443,-70.1397 Z" class="cut" />
    <path d="M 67.2851,-53.3333 L 70.3904,-49.1623 L 86.5933,-61.2249 L 83.4880,-65.3959 Z" class="cut" />
    <path d="M 70.2724,-49.3308 L 73.1298,-44.9863 L 90.0067,-56.0864 L 87.1492,-60.4309 Z" class="cut" />
    <path d="M 73.0218,-45.1614 L 75.6218,-40.6580 L 93.1155,-50.7580 L 90.5155,-55.2614 Z" class="cut" />
    <path d="M 75.5242,-40.8391 L 77.8579,-36.1922 L 95.9093,-45.2580 L 93.5755,-49.9049 Z" class="cut" />
    <path d="M 77.7710,-36.3787 L 79.8306,-31.6040 L 98.3786,-39.6048 L 96.3189,-44.3795 Z" class="cut" />
    <path d="M 79.7546,-31.7952 L 81.5331,-26.9088 L 100.5149,-33.8176 L 98.7364,-38.7040 Z" class="cut" />
    <path d="M 81.4684,-27.1041 L 82.9598,-22.1225 L 102.3112,-27.9159 L 100.8198,-32.8975 Z" class="cut" />
    <path d="M 82.9066,-22.3212 L 84.1058,-17.2614 L 103.7613,-21.9198 L 102.5621,-26.9797 Z" class="cut" />
    <path d="M 84.0642,-17.4629 L 84.9671,-12.3419 L 104.8602,-15.8496 L 103.9573,-20.9706 Z" class="cut" />
    <path d="M 84.9373,-12.5454 L 85.5410,-7.3806 L 105.6044,-9.7257 L 105.0007,-14.8905 Z" class="cut" />
    <path d="M 85.5231,-7.5856 L 85.8254,-2.3944 L 105.9912,-3.5689 L 105.6889,-8.7601 Z" class="cut" />
    <circle cx="0" cy="0" r="85.9194" class="engrave" />
    <line x1="107.4194" y1="0.0000" x2="108.6194" y2="0.0000" class="engrave" />
    <line x1="107.2377" y1="6.2459" x2="108.4357" y2="6.3157" class="engrave" />
    <line x1="106.6931" y1="12.4706" x2="107.8850" y2="12.6099" class="engrave" />
    <line x1="105.7875" y1="18.6532" x2="106.9693" y2="18.8616" class="engrave" />
    <line x1="104.5239" y1="24.7726" x2="105.6916" y2="25.0494" class="engrave" />
    <line x1="102.9067" y1="30.8082" x2="104.0563" y2="31.1524" class="engrave" />
    <line x1="100.9412" y1="36.7396" x2="102.0689" y2="37.1500" class="engrave" />
    <line x1="98.6342" y1="42.5467" x2="99.7361" y2="43.0220" class="engrave" />
    <line x1="95.9935" y1="48.2098" x2="97.0659" y2="48.7483" class="engrave" />
    <line x1="93.0280" y1="53.7097" x2="94.0672" y2="54.3097" class="engrave" />
    <line x1="89.7476" y1="59.0279" x2="90.7502" y2="59.6874" class="engrave" />
    <line x1="86.1636" y1="64.1464" x2="87.1262" y2="64.8630" class="engrave" />
    <line x1="82.2881" y1="69.0479" x2="83.2073" y2="69.8192" class="engrave" />
    <line x1="78.1341" y1="73.7157" x2="79.0069" y2="74.5392" class="engrave" />
    <line x1="73.7157" y1="78.1341" x2="74.5392" y2="79.0069" class="engrave" />
    <line x1="69.0479" y1="82.2881" x2="69.8192" y2="83.2073" class="engrave" />
    <line x1="64.1464" y1="86.1636" x2="64.8630" y2="87.1262" class="engrave" />
    <line x1="59.0279" y1="89.7476" x2="59.6874" y2="90.7502" class="engrave" />
    <line x1="53.7097" y1="93.0280" x2="54.3097" y2="94.0672" class="engrave" />
    <line x1="48.2098" y1="95.9935" x2="48.7483" y2="97.0659" class="engrave" />
    <line x1="42.5467" y1="98.6342" x2="43.0220" y2="99.7361" class="engrave" />
    <line x1="36.7396" y1="100.9412" x2="37.1500" y2="102.0689" class="engrave" />
    <line x1="30.8082" y1="102.9067" x2="31.1524" y2="104.0563" class="engrave" />
    <line x1="24.7726" y1="104.5239" x2="25.0494" y2="105.6916" class="engrave" />
    <line x1="18.6532" y1="105.7875" x2="18.8616" y2="106.9693" class="engrave" />
    <line x1="12.4706" y1="106.6931" x2="12.6099" y2="107.8850" class="engrave" />
    <line x1="6.2459" y1="107.2377" x2="6.3157" y2="108.4357" class="engrave" />
    <line x1="0.0000" y1="107.4194" x2="0.0000" y2="108.6194" class="engrave" />
    <line x1="-6.2459" y1="107.2377" x2="-6.3157" y2="108.4357" class="engrave" />
    <line x1="-12.4706" y1="106.6931" x2="-12.6099" y2="107.8850" class="engrave" />
    <line x1="-18.6532" y1="105.7875" x2="-18.8616" y2="106.9693" class="engrave" />
    <line x1="-24.7726" y1="104.5239" x2="-25.0494" y2="105.6916" class="engrave" />
    <line x1="-30.8082" y1="102.9067" x2="-31.1524" y2="104.0563" class="engrave" />
    <line x1="-36.7396" y1="100.9412" x2="-37.1500" y2="102.0689" class="engrave" />
    <line x1="-42.5467" y1="98.6342" x2="-43.0220" y2="99.7361" class="engrave" />
    <line x1="-48.2098" y1="95.9935" x2="-48.7483" y2="97.0659" class="engrave" />
    <line x1="-53.7097" y1="93.0280" x2="-54.3097" y2="94.0672" class="engrave" />
    <line x1="-59.0279" y1="89.7476" x2="-59.6874" y2="90.7502" class="engrave" />
    <line x1="-64.1464" y1="86.1636" x2="-64.8630" y2="87.1262" class="engrave" />
    <line x1="-69.0479" y1="82.2881" x2="-69.8192" y2="83.2073" class="engrave" />
    <line x1="-73.7157" y1="78.1341" x2="-74.5392" y2="79.0069" class="engrave" />
    <line x1="-78.1341" y1="73.7157" x2="-79.0069" y2="74.5392" class="engrave" />
    <line x1="-82.2881" y1="69.0479" x2="-83.2073" y2="69.8192" class="engrave" />
    <line x1="-86.1636" y1="64.1464" x2="-87.1262" y2="64.8630" class="engrave" />
    <line x1="-89.7476" y1="59.0279" x2="-90.7502" y2="59.6874" class="engrave" />
    <line x1="-93.0280" y1="53.7097" x2="-94.0672" y2="54.3097" class="engrave" />
    <line x1="-95.9935" y1="48.2098" x2="-97.0659" y2="48.7483" class="engrave" />
    <line x1="-98.6342" y1="42.5467" x2="-99.7361" y2="43.0220" class="engrave" />
    <line x1="-100.9412" y1="36.7396" x2="-102.0689" y2="37.1500" class="engrave" />
    <line x1="-102.9067" y1="30.8082" x2="-104.0563" y2="31.1524" class="engrave" />
    <line x1="-104.5239" y1="24.7726" x2="-105.6916" y2="25.0494" class="engrave" />
    <line x1="-105.7875" y1="18.6532" x2="-106.9693" y2="18.8616" class="engrave" />
    <line x1="-106.6931" y1="12.4706" x2="-107.8850" y2="12.6099" class="engrave" />
    <line x1="-107.2377" y1="6.2459" x2="-108.4357" y2="6.3157" class="engrave" />
    <line x1="-107.4194" y1="0.0000" x2="-108.6194" y2="0.0000" class="engrave" />
    <line x1="-107.2377" y1="-6.2459" x2="-108.4357" y2="-6.3157" class="engrave" />
    <line x1="-106.6931" y1="-12.4706" x2="-107.8850" y2="-12.6099" class="engrave" />
    <line x1="-105.7875" y1="-18.6532" x2="-106.9693" y2="-18.8616" class="engrave" />
    <line x1="-104.5239" y1="-24.7726" x2="-105.6916" y2="-25.0494" class="engrave" />
    <line x1="-102.9067" y1="-30.8082" x2="-104.0563" y2="-31.1524" class="engrave" />
    <line x1="-100.9412" y1="-36.7396" x2="-102.0689" y2="-37.1500" class="engrave" />
    <line x1="-98.6342" y1="-42.5467" x2="-99.7361" y2="-43.0220" class="engrave" />
    <line x1="-95.9935" y1="-48.2098" x2="-97.0659" y2="-48.7483" class="engrave" />
    <line x1="-93.0280" y1="-53.7097" x2="-94.0672" y2="-54.3097" class="engrave" />
    <line x1="-89.7476" y1="-59.0279" x2="-90.7502" y2="-59.6874" class="engrave" />
    <line x1="-86.1636" y1="-64.1464" x2="-87.1262" y2="-64.8630" class="engrave" />
    <line x1="-82.2881" y1="-69.0479" x2="-83.2073" y2="-69.8192" class="engrave" />
    <line x1="-78.1341" y1="-73.7157" x2="-79.0069" y2="-74.5392" class="engrave" />
    <line x1="-73.7157" y1="-78.1341" x2="-74.5392" y2="-79.0069" class="engrave" />
    <line x1="-69.0479" y1="-82.2881" x2="-69.8192" y2="-83.2073" class="engrave" />
    <line x1="-64.1464" y1="-86.1636" x2="-64.8630" y2="-87.1262" class="engrave" />
    <line x1="-59.0279" y1="-89.7476" x2="-59.6874" y2="-90.7502" class="engrave" />
    <line x1="-53.7097" y1="-93.0280" x2="-54.3097" y2="-94.0672" class="engrave" />
    <line x1="-48.2098" y1="-95.9935" x2="-48.7483" y2="-97.0659" class="engrave" />
    <line x1="-42.5467" y1="-98.6342" x2="-43.0220" y2="-99.7361" class="engrave" />
    <line x1="-36.7396" y1="-100.9412" x2="-37.1500" y2="-102.0689" class="engrave" />
    <line x1="-30.8082" y1="-102.9067" x2="-31.1524" y2="-104.0563" class="engrave" />
    <line x1="-24.7726" y1="-104.5239" x2="-25.0494" y2="-105.6916" class="engrave" />
    <line x1="-18.6532" y1="-105.7875" x2="-18.8616" y2="-106.9693" class="engrave" />
    <line x1="-12.4706" y1="-106.6931" x2="-12.6099" y2="-107.8850" class="engrave" />
    <line x1="-6.2459" y1="-107.2377" x2="-6.3157" y2="-108.4357" class="engrave" />
    <line x1="-0.0000" y1="-107.4194" x2="-0.0000" y2="-108.6194" class="engrave" />
    <line x1="6.2459" y1="-107.2377" x2="6.3157" y2="-108.4357" class="engrave" />
    <line x1="12.4706" y1="-106.6931" x2="12.6099" y2="-107.8850" class="engrave" />
    <line x1="18.6532" y1="-105.7875" x2="18.8616" y2="-106.9693" class="engrave" />
    <line x1="24.7726" y1="-104.5239" x2="25.0494" y2="-105.6916" class="engrave" />
    <line x1="30.8082" y1="-102.9067" x2="31.1524" y2="-104.0563" class="engrave" />
    <line x1="36.7396" y1="-100.9412" x2="37.1500" y2="-102.0689" class="engrave" />
    <line x1="42.5467" y1="-98.6342" x2="43.0220" y2="-99.7361" class="engrave" />
    <line x1="48.2098" y1="-95.9935" x2="48.7483" y2="-97.0659" class="engrave" />
    <line x1="53.7097" y1="-93.0280" x2="54.3097" y2="-94.0672" class="engrave" />
    <line x1="59.0279" y1="-89.7476" x2="59.6874" y2="-90.7502" class="engrave" />
    <line x1="64.1464" y1="-86.1636" x2="64.8630" y2="-87.1262" class="engrave" />
    <line x1="69.0479" y1="-82.2881" x2="69.8192" y2="-83.2073" class="engrave" />
    <line x1="73.7157" y1="-78.1341" x2="74.5392" y2="-79.0069" class="engrave" />
    <line x1="78.1341" y1="-73.7157" x2="79.0069" y2="-74.5392" class="engrave" />
    <line x1="82.2881" y1="-69.0479" x2="83.2073" y2="-69.8192" class="engrave" />
    <line x1="86.1636" y1="-64.1464" x2="87.1262" y2="-64.8630" class="engrave" />
    <line x1="89.7476" y1="-59.0279" x2="90.7502" y2="-59.6874" class="engrave" />
    <line x1="93.0280" y1="-53.7097" x2="94.0672" y2="-54.3097" class="engrave" />
    <line x1="95.9935" y1="-48.2098" x2="97.0659" y2="-48.7483" class="engrave" />
    <line x1="98.6342" y1="-42.5467" x2="99.7361" y2="-43.0220" class="engrave" />
    <line x1="100.9412" y1="-36.7396" x2="102.0689" y2="-37.1500" class="engrave" />
    <line x1="102.9067" y1="-30.8082" x2="104.0563" y2="-31.1524" class="engrave" />
    <line x1="104.5239" y1="-24.7726" x2="105.6916" y2="-25.0494" class="engrave" />
    <line x1="105.7875" y1="-18.6532" x2="106.9693" y2="-18.8616" class="engrave" />
    <line x1="106.6931" y1="-12.4706" x2="107.8850" y2="-12.6099" class="engrave" />
    <line x1="107.2377" y1="-6.2459" x2="108.4357" y2="-6.3157" class="engrave" />
  </g>
  <text x="4.0" y="224.34" font-family="monospace" font-size="1.8" fill="#444">Encoder wheel: 108 magnets, 20.0×5.0×2.0 mm, r_inner=85.92 mm, r_outer=105.92 mm, disc Ø=217.8 mm.  Red = cut, Blue = engrave.  Sheet thickness = 2.0 mm.</text>
</svg>