  0
SECTION
  2
HEADER
  9
$ACADVER
  1
AC1009
  0
ENDSEC
  0
SECTION
  2
ENTITIES
  0
CIRCLE
  8
BOUNDARY
 10
0.000000
 20
0.000000
 30
0.000000
 40
32.330127
  0
CIRCLE
  8
BORE
 10
0.000000
 20
0.000000
 30
0.000000
 40
5.000000
  0
CIRCLE
  8
REFERENCE
 10
0.000000
 20
0.000000
 30
0.000000
 40
9.330127
  0
LWPOLYLINE
  8
POCKETS
 90
4
 70
1
 10
9.230127
 20
-2.600000
 10
9.230127
 20
2.600000
 10
29.430127
 20
2.600000
 10
29.430127
 20
-2.600000
  0
LWPOLYLINE
  8
POCKETS
 90
4
 70
1
 10
9.293524
 20
2.363397
 10
6.693524
 20
6.866730
 10
24.187238
 20
16.966730
 10
26.787238
 20
12.463397
  0
LWPOLYLINE
  8
POCKETS
 90
4
 70
1
 10
6.866730
 20
6.693524
 10
2.363397
 20
9.293524
 10
12.463397
 20
26.787238
 10
16.966730
 20
24.187238
  0
LWPOLYLINE
  8
POCKETS
 90
4
 70
1
 10
2.600000
 20
9.230127
 10
-2.600000
 20
9.230127
 10
-2.600000
 20
29.430127
 10
2.600000
 20
29.430127
  0
LWPOLYLINE
  8
POCKETS
 90
4
 70
1
 10
-2.363397
 20
9.293524
 10
-6.866730
 20
6.693524
 10
-16.966730
 20
24.187238
 10
-12.463397
 20
26.787238
  0
LWPOLYLINE
  8
POCKETS
 90
4
 70
1
 10
-6.693524
 20
6.866730
 10
-9.293524
 20
2.363397
 10
-26.787238
 20
12.463397
 10
-24.187238
 20
16.966730
  0
LWPOLYLINE
  8
POCKETS
 90
4
 70
1
 10
-9.230127
 20
2.600000
 10
-9.230127
 20
-2.600000
 10
-29.430127
 20
-2.600000
 10
-29.430127
 20
2.600000
  0
LWPOLYLINE
  8
POCKETS
 90
4
 70
1
 10
-9.293524
 20
-2.363397
 10
-6.693524
 20
-6.866730
 10
-24.187238
 20
-16.966730
 10
-26.787238
 20
-12.463397
  0
LWPOLYLINE
  8
POCKETS
 90
4
 70
1
 10
-6.866730
 20
-6.693524
 10
-2.363397
 20
-9.293524
 10
-12.463397
 20
-26.787238
 10
-16.966730
 20
-24.187238
  0
LWPOLYLINE
  8
POCKETS
 90
4
 70
1
 10
-2.600000
 20
-9.230127
 10
2.600000
 20
-9.230127
 10
2.600000
 20
-29.430127
 10
-2.600000
 20
-29.430127
  0
LWPOLYLINE
  8
POCKETS
 90
4
 70
1
 10
2.363397
 20
-9.293524
 10
6.866730
 20
-6.693524
 10
16.966730
 20
-24.187238
 10
12.463397
 20
-26.787238
  0
LWPOLYLINE
  8
POCKETS
 90
4
 70
1
 10
6.693524
 20
-6.866730
 10
9.293524
 20
-2.363397
 10
26.787238
 20
-12.463397
 10
24.187238
 20
-16.966730
  0
ENDSEC
  0
EOF
