  0
SECTION
  2
HEADER
  9
$ACADVER
  1
AC1009
  0
ENDSEC
  0
SECTION
  2
ENTITIES
  0
CIRCLE
  8
BOUNDARY
 10
0.000000
 20
0.000000
 30
0.000000
 40
108.919427
  0
CIRCLE
  8
BORE
 10
0.000000
 20
0.000000
 30
0.000000
 40
5.000000
  0
CIRCLE
  8
REFERENCE
 10
0.000000
 20
0.000000
 30
0.000000
 40
85.919427
  0
LWPOLYLINE
  8
POCKETS
 90
4
 70
1
 10
85.819427
 20
-2.600000
 10
85.819427
 20
2.600000
 10
106.019427
 20
2.600000
 10
106.019427
 20
-2.600000
  0
LWPOLYLINE
  8
POCKETS
 90
4
 70
1
 10
85.825411
 20
2.394355
 10
85.523058
 20
7.585557
 10
105.688883
 20
8.760083
 10
105.991236
 20
3.568880
  0
LWPOLYLINE
  8
POCKETS
 90
4
 70
1
 10
85.540989
 20
7.380608
 10
84.937305
 20
12.545447
 10
105.000720
 20
14.890524
 10
105.604403
 20
9.725685
  0
LWPOLYLINE
  8
POCKETS
 90
4
 70
1
 10
84.967123
 20
12.341887
 10
84.064152
 20
17.462887
 10
103.957269
 20
20.970580
 10
104.860239
 20
15.849580
  0
LWPOLYLINE
  8
POCKETS
 90
4
 70
1
 10
84.105755
 20
17.261405
 10
82.906552
 20
22.321239
 10
102.562059
 20
26.979679
 10
103.761261
 20
21.919846
  0
LWPOLYLINE
  8
POCKETS
 90
4
 70
1
 10
82.959800
 20
22.122516
 10
81.468423
 20
27.104062
 10
100.819811
 20
32.897487
 10
102.311188
 20
27.915942
  0
LWPOLYLINE
  8
POCKETS
 90
4
 70
1
 10
81.533135
 20
26.908772
 10
79.754630
 20
31.795174
 10
98.736421
 20
38.703981
 10
100.514926
 20
33.817579
  0
LWPOLYLINE
  8
POCKETS
 90
4
 70
1
 10
79.830588
 20
31.603977
 10
77.770973
 20
36.378701
 10
96.318938
 20
44.379512
 10
98.378553
 20
39.604788
  0
LWPOLYLINE
  8
POCKETS
 90
4
 70
1
 10
77.857919
 20
36.192244
 10
75.524163
 20
40.839133
 10
93.575543
 20
49.904877
 10
95.909299
 20
45.257987
  0
LWPOLYLINE
  8
POCKETS
 90
4
 70
1
 10
75.621804
 20
40.658048
 10
73.021804
 20
45.161380
 10
90.515517
 20
55.261380
 10
93.115517
 20
50.758048
  0
LWPOLYLINE
  8
POCKETS
 90
4
 70
1
 10
73.129809
 20
44.986277
 10
70.272362
 20
49.330814
 10
87.149216
 20
60.430895
 10
90.006663
 20
56.086359
  0
LWPOLYLINE
  8
POCKETS
 90
4
 70
1
 10
70.390365
 20
49.162288
 10
67.285141
 20
53.333329
 10
83.488029
 20
65.395932
 10
86.593254
 20
61.224892
  0
LWPOLYLINE
  8
POCKETS
 90
4
 70
1
 10
67.412743
 20
53.171949
 10
64.070248
 20
57.155380
 10
79.544345
 20
70.139690
 10
82.886841
 20
66.156259
  0
LWPOLYLINE
  8
POCKETS
 90
4
 70
1
 10
64.207018
 20
57.001693
 10
60.638561
 20
60.784036
 10
75.331509
 20
74.646117
 10
78.899965
 20
70.863774
  0
LWPOLYLINE
  8
POCKETS
 90
4
 70
1
 10
60.784036
 20
60.638561
 10
57.001693
 20
64.207018
 10
70.863774
 20
78.899965
 10
74.646117
 20
75.331509
  0
LWPOLYLINE
  8
POCKETS
 90
4
 70
1
 10
57.155380
 20
64.070248
 10
53.171949
 20
67.412743
 10
66.156259
 20
82.886841
 10
70.139690
 20
79.544345
  0
LWPOLYLINE
  8
POCKETS
 90
4
 70
1
 10
53.333329
 20
67.285141
 10
49.162288
 20
70.390365
 10
61.224892
 20
86.593254
 10
65.395932
 20
83.488029
  0
LWPOLYLINE
  8
POCKETS
 90
4
 70
1
 10
49.330814
 20
70.272362
 10
44.986277
 20
73.129809
 10
56.086359
 20
90.006663
 10
60.430895
 20
87.149216
  0
LWPOLYLINE
  8
POCKETS
 90
4
 70
1
 10
45.161380
 20
73.021804
 10
40.658048
 20
75.621804
 10
50.758048
 20
93.115517
 10
55.261380
 20
90.515517
  0
LWPOLYLINE
  8
POCKETS
 90
4
 70
1
 10
40.839133
 20
75.524163
 10
36.192244
 20
77.857919
 10
45.257987
 20
95.909299
 10
49.904877
 20
93.575543
  0
LWPOLYLINE
  8
POCKETS
 90
4
 70
1
 10
36.378701
 20
77.770973
 10
31.603977
 20
79.830588
 10
39.604788
 20
98.378553
 10
44.379512
 20
96.318938
  0
LWPOLYLINE
  8
POCKETS
 90
4
 70
1
 10
31.795174
 20
79.754630
 10
26.908772
 20
81.533135
 10
33.817579
 20
100.514926
 10
38.703981
 20
98.736421
  0
LWPOLYLINE
  8
POCKETS
 90
4
 70
1
 10
27.104062
 20
81.468423
 10
22.122516
 20
82.959800
 10
27.915942
 20
102.311188
 10
32.897487
 20
100.819811
  0
LWPOLYLINE
  8
POCKETS
 90
4
 70
1
 10
22.321239
 20
82.906552
 10
17.261405
 20
84.105755
 10
21.919846
 20
103.761261
 10
26.979679
 20
102.562059
  0
LWPOLYLINE
  8
POCKETS
 90
4
 70
1
 10
17.462887
 20
84.064152
 10
12.341887
 20
84.967123
 10
15.849580
 20
104.860239
 10
20.970580
 20
103.957269
  0
LWPOLYLINE
  8
POCKETS
 90
4
 70
1
 10
12.545447
 20
84.937305
 10
7.380608
 20
85.540989
 10
9.725685
 20
105.604403
 10
14.890524
 20
105.000720
  0
LWPOLYLINE
  8
POCKETS
 90
4
 70
1
 10
7.585557
 20
85.523058
 10
2.394355
 20
85.825411
 10
3.568880
 20
105.991236
 10
8.760083
 20
105.688883
  0
LWPOLYLINE
  8
POCKETS
 90
4
 70
1
 10
2.600000
 20
85.819427
 10
-2.600000
 20
85.819427
 10
-2.600000
 20
106.019427
 10
2.600000
 20
106.019427
  0
LWPOLYLINE
  8
POCKETS
 90
4
 70
1
 10
-2.394355
 20
85.825411
 10
-7.585557
 20
85.523058
 10
-8.760083
 20
105.688883
 10
-3.568880
 20
105.991236
  0
LWPOLYLINE
  8
POCKETS
 90
4
 70
1
 10
-7.380608
 20
85.540989
 10
-12.545447
 20
84.937305
 10
-14.890524
 20
105.000720
 10
-9.725685
 20
105.604403
  0
LWPOLYLINE
  8
POCKETS
 90
4
 70
1
 10
-12.341887
 20
84.967123
 10
-17.462887
 20
84.064152
 10
-20.970580
 20
103.957269
 10
-15.849580
 20
104.860239
  0
LWPOLYLINE
  8
POCKETS
 90
4
 70
1
 10
-17.261405
 20
84.105755
 10
-22.321239
 20
82.906552
 10
-26.979679
 20
102.562059
 10
-21.919846
 20
103.761261
  0
LWPOLYLINE
  8
POCKETS
 90
4
 70
1
 10
-22.122516
 20
82.959800
 10
-27.104062
 20
81.468423
 10
-32.897487
 20
100.819811
 10
-27.915942
 20
102.311188
  0
LWPOLYLINE
  8
POCKETS
 90
4
 70
1
 10
-26.908772
 20
81.533135
 10
-31.795174
 20
79.754630
 10
-38.703981
 20
98.736421
 10
-33.817579
 20
100.514926
  0
LWPOLYLINE
  8
POCKETS
 90
4
 70
1
 10
-31.603977
 20
79.830588
 10
-36.378701
 20
77.770973
 10
-44.379512
 20
96.318938
 10
-39.604788
 20
98.378553
  0
LWPOLYLINE
  8
POCKETS
 90
4
 70
1
 10
-36.192244
 20
77.857919
 10
-40.839133
 20
75.524163
 10
-49.904877
 20
93.575543
 10
-45.257987
 20
95.909299
  0
LWPOLYLINE
  8
POCKETS
 90
4
 70
1
 10
-40.658048
 20
75.621804
 10
-45.161380
 20
73.021804
 10
-55.261380
 20
90.515517
 10
-50.758048
 20
93.115517
  0
LWPOLYLINE
  8
POCKETS
 90
4
 70
1
 10
-44.986277
 20
73.129809
 10
-49.330814
 20
70.272362
 10
-60.430895
 20
87.149216
 10
-56.086359
 20
90.006663
  0
LWPOLYLINE
  8
POCKETS
 90
4
 70
1
 10
-49.162288
 20
70.390365
 10
-53.333329
 20
67.285141
 10
-65.395932
 20
83.488029
 10
-61.224892
 20
86.593254
  0
LWPOLYLINE
  8
POCKETS
 90
4
 70
1
 10
-53.171949
 20
67.412743
 10
-57.155380
 20
64.070248
 10
-70.139690
 20
79.544345
 10
-66.156259
 20
82.886841
  0
LWPOLYLINE
  8
POCKETS
 90
4
 70
1
 10
-57.001693
 20
64.207018
 10
-60.784036
 20
60.638561
 10
-74.646117
 20
75.331509
 10
-70.863774
 20
78.899965
  0
LWPOLYLINE
  8
POCKETS
 90
4
 70
1
 10
-60.638561
 20
60.784036
 10
-64.207018
 20
57.001693
 10
-78.899965
 20
70.863774
 10
-75.331509
 20
74.646117
  0
LWPOLYLINE
  8
POCKETS
 90
4
 70
1
 10
-64.070248
 20
57.155380
 10
-67.412743
 20
53.171949
 10
-82.886841
 20
66.156259
 10
-79.544345
 20
70.139690
  0
LWPOLYLINE
  8
POCKETS
 90
4
 70
1
 10
-67.285141
 20
53.333329
 10
-70.390365
 20
49.162288
 10
-86.593254
 20
61.224892
 10
-83.488029
 20
65.395932
  0
LWPOLYLINE
  8
POCKETS
 90
4
 70
1
 10
-70.272362
 20
49.330814
 10
-73.129809
 20
44.986277
 10
-90.006663
 20
56.086359
 10
-87.149216
 20
60.430895
  0
LWPOLYLINE
  8
POCKETS
 90
4
 70
1
 10
-73.021804
 20
45.161380
 10
-75.621804
 20
40.658048
 10
-93.115517
 20
50.758048
 10
-90.515517
 20
55.261380
  0
LWPOLYLINE
  8
POCKETS
 90
4
 70
1
 10
-75.524163
 20
40.839133
 10
-77.857919
 20
36.192244
 10
-95.909299
 20
45.257987
 10
-93.575543
 20
49.904877
  0
LWPOLYLINE
  8
POCKETS
 90
4
 70
1
 10
-77.770973
 20
36.378701
 10
-79.830588
 20
31.603977
 10
-98.378553
 20
39.604788
 10
-96.318938
 20
44.379512
  0
LWPOLYLINE
  8
POCKETS
 90
4
 70
1
 10
-79.754630
 20
31.795174
 10
-81.533135
 20
26.908772
 10
-100.514926
 20
33.817579
 10
-98.736421
 20
38.703981
  0
LWPOLYLINE
  8
POCKETS
 90
4
 70
1
 10
-81.468423
 20
27.104062
 10
-82.959800
 20
22.122516
 10
-102.311188
 20
27.915942
 10
-100.819811
 20
32.897487
  0
LWPOLYLINE
  8
POCKETS
 90
4
 70
1
 10
-82.906552
 20
22.321239
 10
-84.105755
 20
17.261405
 10
-103.761261
 20
21.919846
 10
-102.562059
 20
26.979679
  0
LWPOLYLINE
  8
POCKETS
 90
4
 70
1
 10
-84.064152
 20
17.462887
 10
-84.967123
 20
12.341887
 10
-104.860239
 20
15.849580
 10
-103.957269
 20
20.970580
  0
LWPOLYLINE
  8
POCKETS
 90
4
 70
1
 10
-84.937305
 20
12.545447
 10
-85.540989
 20
7.380608
 10
-105.604403
 20
9.725685
 10
-105.000720
 20
14.890524
  0
LWPOLYLINE
  8
POCKETS
 90
4
 70
1
 10
-85.523058
 20
7.585557
 10
-85.825411
 20
2.394355
 10
-105.991236
 20
3.568880
 10
-105.688883
 20
8.760083
  0
LWPOLYLINE
  8
POCKETS
 90
4
 70
1
 10
-85.819427
 20
2.600000
 10
-85.819427
 20
-2.600000
 10
-106.019427
 20
-2.600000
 10
-106.019427
 20
2.600000
  0
LWPOLYLINE
  8
POCKETS
 90
4
 70
1
 10
-85.825411
 20
-2.394355
 10
-85.523058
 20
-7.585557
 10
-105.688883
 20
-8.760083
 10
-105.991236
 20
-3.568880
  0
LWPOLYLINE
  8
POCKETS
 90
4
 70
1
 10
-85.540989
 20
-7.380608
 10
-84.937305
 20
-12.545447
 10
-105.000720
 20
-14.890524
 10
-105.604403
 20
-9.725685
  0
LWPOLYLINE
  8
POCKETS
 90
4
 70
1
 10
-84.967123
 20
-12.341887
 10
-84.064152
 20
-17.462887
 10
-103.957269
 20
-20.970580
 10
-104.860239
 20
-15.849580
  0
LWPOLYLINE
  8
POCKETS
 90
4
 70
1
 10
-84.105755
 20
-17.261405
 10
-82.906552
 20
-22.321239
 10
-102.562059
 20
-26.979679
 10
-103.761261
 20
-21.919846
  0
LWPOLYLINE
  8
POCKETS
 90
4
 70
1
 10
-82.959800
 20
-22.122516
 10
-81.468423
 20
-27.104062
 10
-100.819811
 20
-32.897487
 10
-102.311188
 20
-27.915942
  0
LWPOLYLINE
  8
POCKETS
 90
4
 70
1
 10
-81.533135
 20
-26.908772
 10
-79.754630
 20
-31.795174
 10
-98.736421
 20
-38.703981
 10
-100.514926
 20
-33.817579
  0
LWPOLYLINE
  8
POCKETS
 90
4
 70
1
 10
-79.830588
 20
-31.603977
 10
-77.770973
 20
-36.378701
 10
-96.318938
 20
-44.379512
 10
-98.378553
 20
-39.604788
  0
LWPOLYLINE
  8
POCKETS
 90
4
 70
1
 10
-77.857919
 20
-36.192244
 10
-75.524163
 20
-40.839133
 10
-93.575543
 20
-49.904877
 10
-95.909299
 20
-45.257987
  0
LWPOLYLINE
  8
POCKETS
 90
4
 70
1
 10
-75.621804
 20
-40.658048
 10
-73.021804
 20
-45.161380
 10
-90.515517
 20
-55.261380
 10
-93.115517
 20
-50.758048
  0
LWPOLYLINE
  8
POCKETS
 90
4
 70
1
 10
-73.129809
 20
-44.986277
 10
-70.272362
 20
-49.330814
 10
-87.149216
 20
-60.430895
 10
-90.006663
 20
-56.086359
  0
LWPOLYLINE
  8
POCKETS
 90
4
 70
1
 10
-70.390365
 20
-49.162288
 10
-67.285141
 20
-53.333329
 10
-83.488029
 20
-65.395932
 10
-86.593254
 20
-61.224892
  0
LWPOLYLINE
  8
POCKETS
 90
4
 70
1
 10
-67.412743
 20
-53.171949
 10
-64.070248
 20
-57.155380
 10
-79.544345
 20
-70.139690
 10
-82.886841
 20
-66.156259
  0
LWPOLYLINE
  8
POCKETS
 90
4
 70
1
 10
-64.207018
 20
-57.001693
 10
-60.638561
 20
-60.784036
 10
-75.331509
 20
-74.646117
 10
-78.899965
 20
-70.863774
  0
LWPOLYLINE
  8
POCKETS
 90
4
 70
1
 10
-60.784036
 20
-60.638561
 10
-57.001693
 20
-64.207018
 10
-70.863774
 20
-78.899965
 10
-74.646117
 20
-75.331509
  0
LWPOLYLINE
  8
POCKETS
 90
4
 70
1
 10
-57.155380
 20
-64.070248
 10
-53.171949
 20
-67.412743
 10
-66.156259
 20
-82.886841
 10
-70.139690
 20
-79.544345
  0
LWPOLYLINE
  8
POCKETS
 90
4
 70
1
 10
-53.333329
 20
-67.285141
 10
-49.162288
 20
-70.390365
 10
-61.224892
 20
-86.593254
 10
-65.395932
 20
-83.488029
  0
LWPOLYLINE
  8
POCKETS
 90
4
 70
1
 10
-49.330814
 20
-70.272362
 10
-44.986277
 20
-73.129809
 10
-56.086359
 20
-90.006663
 10
-60.430895
 20
-87.149216
  0
LWPOLYLINE
  8
POCKETS
 90
4
 70
1
 10
-45.161380
 20
-73.021804
 10
-40.658048
 20
-75.621804
 10
-50.758048
 20
-93.115517
 10
-55.261380
 20
-90.515517
  0
LWPOLYLINE
  8
POCKETS
 90
4
 70
1
 10
-40.839133
 20
-75.524163
 10
-36.192244
 20
-77.857919
 10
-45.257987
 20
-95.909299
 10
-49.904877
 20
-93.575543
  0
LWPOLYLINE
  8
POCKETS
 90
4
 70
1
 10
-36.378701
 20
-77.770973
 10
-31.603977
 20
-79.830588
 10
-39.604788
 20
-98.378553
 10
-44.379512
 20
-96.318938
  0
LWPOLYLINE
  8
POCKETS
 90
4
 70
1
 10
-31.795174
 20
-79.754630
 10
-26.908772
 20
-81.533135
 10
-33.817579
 20
-100.514926
 10
-38.703981
 20
-98.736421
  0
LWPOLYLINE
  8
POCKETS
 90
4
 70
1
 10
-27.104062
 20
-81.468423
 10
-22.122516
 20
-82.959800
 10
-27.915942
 20
-102.311188
 10
-32.897487
 20
-100.819811
  0
LWPOLYLINE
  8
POCKETS
 90
4
 70
1
 10
-22.321239
 20
-82.906552
 10
-17.261405
 20
-84.105755
 10
-21.919846
 20
-103.761261
 10
-26.979679
 20
-102.562059
  0
LWPOLYLINE
  8
POCKETS
 90
4
 70
1
 10
-17.462887
 20
-84.064152
 10
-12.341887
 20
-84.967123
 10
-15.849580
 20
-104.860239
 10
-20.970580
 20
-103.957269
  0
LWPOLYLINE
  8
POCKETS
 90
4
 70
1
 10
-12.545447
 20
-84.937305
 10
-7.380608
 20
-85.540989
 10
-9.725685
 20
-105.604403
 10
-14.890524
 20
-105.000720
  0
LWPOLYLINE
  8
POCKETS
 90
4
 70
1
 10
-7.585557
 20
-85.523058
 10
-2.394355
 20
-85.825411
 10
-3.568880
 20
-105.991236
 10
-8.760083
 20
-105.688883
  0
LWPOLYLINE
  8
POCKETS
 90
4
 70
1
 10
-2.600000
 20
-85.819427
 10
2.600000
 20
-85.819427
 10
2.600000
 20
-106.019427
 10
-2.600000
 20
-106.019427
  0
LWPOLYLINE
  8
POCKETS
 90
4
 70
1
 10
2.394355
 20
-85.825411
 10
7.585557
 20
-85.523058
 10
8.760083
 20
-105.688883
 10
3.568880
 20
-105.991236
  0
LWPOLYLINE
  8
POCKETS
 90
4
 70
1
 10
7.380608
 20
-85.540989
 10
12.545447
 20
-84.937305
 10
14.890524
 20
-105.000720
 10
9.725685
 20
-105.604403
  0
LWPOLYLINE
  8
POCKETS
 90
4
 70
1
 10
12.341887
 20
-84.967123
 10
17.462887
 20
-84.064152
 10
20.970580
 20
-103.957269
 10
15.849580
 20
-104.860239
  0
LWPOLYLINE
  8
POCKETS
 90
4
 70
1
 10
17.261405
 20
-84.105755
 10
22.321239
 20
-82.906552
 10
26.979679
 20
-102.562059
 10
21.919846
 20
-103.761261
  0
LWPOLYLINE
  8
POCKETS
 90
4
 70
1
 10
22.122516
 20
-82.959800
 10
27.104062
 20
-81.468423
 10
32.897487
 20
-100.819811
 10
27.915942
 20
-102.311188
  0
LWPOLYLINE
  8
POCKETS
 90
4
 70
1
 10
26.908772
 20
-81.533135
 10
31.795174
 20
-79.754630
 10
38.703981
 20
-98.736421
 10
33.817579
 20
-100.514926
  0
LWPOLYLINE
  8
POCKETS
 90
4
 70
1
 10
31.603977
 20
-79.830588
 10
36.378701
 20
-77.770973
 10
44.379512
 20
-96.318938
 10
39.604788
 20
-98.378553
  0
LWPOLYLINE
  8
POCKETS
 90
4
 70
1
 10
36.192244
 20
-77.857919
 10
40.839133
 20
-75.524163
 10
49.904877
 20
-93.575543
 10
45.257987
 20
-95.909299
  0
LWPOLYLINE
  8
POCKETS
 90
4
 70
1
 10
40.658048
 20
-75.621804
 10
45.161380
 20
-73.021804
 10
55.261380
 20
-90.515517
 10
50.758048
 20
-93.115517
  0
LWPOLYLINE
  8
POCKETS
 90
4
 70
1
 10
44.986277
 20
-73.129809
 10
49.330814
 20
-70.272362
 10
60.430895
 20
-87.149216
 10
56.086359
 20
-90.006663
  0
LWPOLYLINE
  8
POCKETS
 90
4
 70
1
 10
49.162288
 20
-70.390365
 10
53.333329
 20
-67.285141
 10
65.395932
 20
-83.488029
 10
61.224892
 20
-86.593254
  0
LWPOLYLINE
  8
POCKETS
 90
4
 70
1
 10
53.171949
 20
-67.412743
 10
57.155380
 20
-64.070248
 10
70.139690
 20
-79.544345
 10
66.156259
 20
-82.886841
  0
LWPOLYLINE
  8
POCKETS
 90
4
 70
1
 10
57.001693
 20
-64.207018
 10
60.784036
 20
-60.638561
 10
74.646117
 20
-75.331509
 10
70.863774
 20
-78.899965
  0
LWPOLYLINE
  8
POCKETS
 90
4
 70
1
 10
60.638561
 20
-60.784036
 10
64.207018
 20
-57.001693
 10
78.899965
 20
-70.863774
 10
75.331509
 20
-74.646117
  0
LWPOLYLINE
  8
POCKETS
 90
4
 70
1
 10
64.070248
 20
-57.155380
 10
67.412743
 20
-53.171949
 10
82.886841
 20
-66.156259
 10
79.544345
 20
-70.139690
  0
LWPOLYLINE
  8
POCKETS
 90
4
 70
1
 10
67.285141
 20
-53.333329
 10
70.390365
 20
-49.162288
 10
86.593254
 20
-61.224892
 10
83.488029
 20
-65.395932
  0
LWPOLYLINE
  8
POCKETS
 90
4
 70
1
 10
70.272362
 20
-49.330814
 10
73.129809
 20
-44.986277
 10
90.006663
 20
-56.086359
 10
87.149216
 20
-60.430895
  0
LWPOLYLINE
  8
POCKETS
 90
4
 70
1
 10
73.021804
 20
-45.161380
 10
75.621804
 20
-40.658048
 10
93.115517
 20
-50.758048
 10
90.515517
 20
-55.261380
  0
LWPOLYLINE
  8
POCKETS
 90
4
 70
1
 10
75.524163
 20
-40.839133
 10
77.857919
 20
-36.192244
 10
95.909299
 20
-45.257987
 10
93.575543
 20
-49.904877
  0
LWPOLYLINE
  8
POCKETS
 90
4
 70
1
 10
77.770973
 20
-36.378701
 10
79.830588
 20
-31.603977
 10
98.378553
 20
-39.604788
 10
96.318938
 20
-44.379512
  0
LWPOLYLINE
  8
POCKETS
 90
4
 70
1
 10
79.754630
 20
-31.795174
 10
81.533135
 20
-26.908772
 10
100.514926
 20
-33.817579
 10
98.736421
 20
-38.703981
  0
LWPOLYLINE
  8
POCKETS
 90
4
 70
1
 10
81.468423
 20
-27.104062
 10
82.959800
 20
-22.122516
 10
102.311188
 20
-27.915942
 10
100.819811
 20
-32.897487
  0
LWPOLYLINE
  8
POCKETS
 90
4
 70
1
 10
82.906552
 20
-22.321239
 10
84.105755
 20
-17.261405
 10
103.761261
 20
-21.919846
 10
102.562059
 20
-26.979679
  0
LWPOLYLINE
  8
POCKETS
 90
4
 70
1
 10
84.064152
 20
-17.462887
 10
84.967123
 20
-12.341887
 10
104.860239
 20
-15.849580
 10
103.957269
 20
-20.970580
  0
LWPOLYLINE
  8
POCKETS
 90
4
 70
1
 10
84.937305
 20
-12.545447
 10
85.540989
 20
-7.380608
 10
105.604403
 20
-9.725685
 10
105.000720
 20
-14.890524
  0
LWPOLYLINE
  8
POCKETS
 90
4
 70
1
 10
85.523058
 20
-7.585557
 10
85.825411
 20
-2.394355
 10
105.991236
 20
-3.568880
 10
105.688883
 20
-8.760083
  0
ENDSEC
  0
EOF
