<?xml version="1.0" encoding="UTF-8"?>
<svg xmlns="http://www.w3.org/2000/svg" width="130.0mm" height="70.0mm" viewBox="0 0 130.0 70.0">
  <title>Encoder Wheel — Cross-Section (3D Print Variants)</title>
  <rect width="130.0" height="70.0" fill="white"/>
<rect x="10.0" y="37.0" width="3.0" height="10.0" fill="#aaa" stroke="#666" stroke-width="0.3"/>
<rect x="39.5" y="37.0" width="3.0" height="10.0" fill="#aaa" stroke="#666" stroke-width="0.3"/>
<rect x="13.0" y="37.0" width="26.5" height="10.0" fill="#4a90d9" stroke="#2e6bb0" stroke-width="0.3"/>
<text x="26.2" y="42.8" text-anchor="middle" font-size="2.5" fill="white" font-family="sans-serif">magnet</text>
<text x="8.5" y="45.0" text-anchor="end" font-size="1.8" fill="#333" font-family="sans-serif">2mm</text>
<text x="26.2" y="53.0" text-anchor="middle" font-size="2.8" fill="#333" font-family="sans-serif" font-weight="bold">Basic: pockets only</text>
<rect x="48.0" y="29.5" width="3.0" height="17.5" fill="#aaa" stroke="#666" stroke-width="0.3"/>
<rect x="77.5" y="29.5" width="3.0" height="17.5" fill="#aaa" stroke="#666" stroke-width="0.3"/>
<rect x="51.0" y="29.5" width="26.5" height="7.5" fill="#888" stroke="#555" stroke-width="0.3"/>
<rect x="51.0" y="29.5" width="26.5" height="10.0" fill="#4a90d9" stroke="#2e6bb0" stroke-width="0.3"/>
<text x="64.2" y="35.3" text-anchor="middle" font-size="2.5" fill="white" font-family="sans-serif">magnet</text>
<rect x="51.0" y="29.5" width="7.5" height="-3.0" fill="#888" stroke="#555" stroke-width="0.3"/>
<rect x="70.0" y="29.5" width="7.5" height="-3.0" fill="#888" stroke="#555" stroke-width="0.3"/>
<line x1="64.2" y1="22.5" x2="64.2" y2="28.5" stroke="#e74c3c" stroke-width="0.5" stroke-dasharray="1 0.5" marker-end="url(#arr)"/>
<text x="46.5" y="43.8" text-anchor="end" font-size="1.8" fill="#333" font-family="sans-serif">back</text>
<text x="46.5" y="37.5" text-anchor="end" font-size="1.8" fill="#333" font-family="sans-serif">2mm</text>
<text x="64.2" y="53.0" text-anchor="middle" font-size="2.8" fill="#333" font-family="sans-serif" font-weight="bold">With back plate + tabs</text>
<rect x="88.0" y="25.5" width="3.0" height="21.5" fill="#aaa" stroke="#666" stroke-width="0.3"/>
<rect x="117.5" y="25.5" width="3.0" height="21.5" fill="#aaa" stroke="#666" stroke-width="0.3"/>
<rect x="91.0" y="25.5" width="26.5" height="7.5" fill="#888" stroke="#555" stroke-width="0.3"/>
<rect x="91.0" y="29.5" width="26.5" height="10.0" fill="#4a90d9" stroke="#2e6bb0" stroke-width="0.3"/>
<text x="104.2" y="35.3" text-anchor="middle" font-size="2.5" fill="white" font-family="sans-serif">magnet</text>
<rect x="91.0" y="25.5" width="26.5" height="4.0" fill="#ccc" stroke="#999" stroke-width="0.3"/>
<text x="104.2" y="24.7" text-anchor="middle" font-size="2" fill="#666" font-family="sans-serif">front face</text>
<text x="86.5" y="43.8" text-anchor="end" font-size="1.8" fill="#333" font-family="sans-serif">back</text>
<text x="86.5" y="37.5" text-anchor="end" font-size="1.8" fill="#333" font-family="sans-serif">2mm</text>
<text x="104.2" y="53.0" text-anchor="middle" font-size="2.8" fill="#333" font-family="sans-serif" font-weight="bold">Back + front face</text>
<text x="5" y="8" font-size="3.5" fill="#222" font-family="sans-serif" font-weight="bold">3D-Printed Encoder Wheel — Cross-Section (one magnet slot)</text>
<text x="5" y="13.5" font-size="2.5" fill="#555" font-family="sans-serif">Gray = printed frame, Blue = magnet (20×5×2 mm).  Slot opens upward (+Z).</text>
</svg>
