<?xml version="1.0" encoding="UTF-8"?>
<svg xmlns="http://www.w3.org/2000/svg" width="265.0mm" height="150.0mm" viewBox="0 0 265.0 150.0">
  <title>10 in half-ring cover — radial cross section</title>
  <defs>
    <marker id="arr" markerWidth="6" markerHeight="6" refX="5" refY="3" orient="auto">
      <path d="M0,0 L6,3 L0,6 Z" fill="#555"/>
    </marker>
    <marker id="arr2" markerWidth="6" markerHeight="6" refX="1" refY="3" orient="auto">
      <path d="M6,0 L0,3 L6,6 Z" fill="#555"/>
    </marker>
    <style>
      .dim { stroke: #555; stroke-width: 0.5; marker-start: url(#arr2); marker-end: url(#arr); }
      .callout { stroke: #555; stroke-width: 0.4; fill: none; marker-end: url(#arr); }
      .text { font-family: sans-serif; fill: #333; }
      .label { font-family: sans-serif; fill: #222; font-size: 4px; font-weight: bold; }
      .note { font-family: sans-serif; fill: #555; font-size: 2.8px; }
    </style>
  </defs>
  <rect width="265.0" height="150.0" fill="white"/>
  <text x="8" y="9" class="label">10 in Half Ring Over Magnets — radial cross section through one magnet</text>
  <text x="8" y="14.5" class="note">Top cover shown in gray, magnet in blue, 1/8 in steel backing half ring in dark gray. Dimensions are design intent in mm.</text>
  <rect x="24.000" y="40.000" width="198.120" height="15.000" fill="#d9d9d9" stroke="#666" stroke-width="0.5"/>
  <rect x="76.104" y="55.000" width="7.956" height="30.000" fill="#c7c7c7" stroke="#666" stroke-width="0.4"/>
  <rect x="162.060" y="55.000" width="7.956" height="30.000" fill="#c7c7c7" stroke="#666" stroke-width="0.4"/>
  <rect x="73.530" y="55.000" width="12.382" height="62.625" fill="#b9b9b9" stroke="#666" stroke-width="0.4"/>
  <rect x="160.207" y="55.000" width="12.382" height="62.625" fill="#b9b9b9" stroke="#666" stroke-width="0.4"/>
  <rect x="85.132" y="115.375" width="0.780" height="2.200" fill="#8f8f8f" stroke="#666" stroke-width="0.3"/>
  <rect x="160.207" y="115.375" width="0.780" height="2.200" fill="#8f8f8f" stroke="#666" stroke-width="0.3"/>
  <rect x="84.060" y="55.000" width="78.000" height="30.000" fill="#4a90d9" stroke="#2e6bb0" stroke-width="0.5"/>
  <rect x="73.530" y="85.000" width="99.060" height="47.625" fill="#8a8a8a" stroke="#555" stroke-width="0.5"/>
  <text x="123.060" y="49.300" text-anchor="middle" class="text" font-size="3.2">1.0 mm base, 50.8 mm radial span (5 in ID to 9 in OD)</text>
  <text x="123.060" y="73.000" text-anchor="middle" font-size="3.2" fill="white" font-family="sans-serif">20×2 mm magnet section</text>
  <text x="123.060" y="108.250" text-anchor="middle" font-size="3.2" fill="white" font-family="sans-serif">1/8 in steel ring</text>
  <line x1="24.000" y1="146.500" x2="222.120" y2="146.500" class="dim"/>
  <text x="123.060" y="140.500" text-anchor="middle" class="text" font-size="3.1">2.000 in radial base span = 50.80 mm</text>
  <line x1="14.640" y1="40.000" x2="14.640" y2="55.000" class="dim"/>
  <text x="11.910" y="49.300" text-anchor="end" class="text" font-size="3.0">1.0</text>
  <line x1="4.500" y1="55.000" x2="4.500" y2="85.000" class="dim"/>
  <text x="1.770" y="71.500" text-anchor="end" class="text" font-size="3.0">2.0</text>
  <line x1="-6.030" y1="85.000" x2="-6.030" y2="132.625" class="dim"/>
  <text x="-8.760" y="112.000" text-anchor="end" class="text" font-size="3.0">3.175</text>
  <line x1="-16.560" y1="55.000" x2="-16.560" y2="117.625" class="dim"/>
  <text x="-18.900" y="88.000" text-anchor="end" class="text" font-size="3.0">4.175 wall depth</text>
  <line x1="76.104" y1="130.000" x2="84.060" y2="130.000" class="dim"/>
  <text x="80.082" y="124.000" text-anchor="middle" class="text" font-size="3.0">2.04 wall</text>
  <line x1="73.530" y1="164.500" x2="85.912" y2="164.500" class="dim"/>
  <text x="79.721" y="158.500" text-anchor="middle" class="text" font-size="3.0">3.175 wall</text>
  <line x1="85.132" y1="130.375" x2="85.912" y2="130.375" class="dim"/>
  <text x="85.522" y="125.125" text-anchor="middle" class="text" font-size="3.0">0.2 snap lip</text>
  <path d="M 73.530,144.625 L 57.930,158.125" class="callout"/>
  <text x="55.590" y="161.875" text-anchor="end" class="note">6 in ID steel starts at +12.7 mm from cover ID</text>
  <path d="M 84.060,82.000 L 56.760,70.000" class="callout"/>
  <text x="54.420" y="68.500" text-anchor="end" class="note">magnet band shown centered on steel ring</text>
  <text x="8" y="140" class="note">Requested stack from top to bottom: 1.0 mm cover base, 2.0 mm magnet cavity, 3.175 mm steel cavity, plus 1.0 mm extra wall extension and 0.2 mm snap overhang.</text>
</svg>
