<?xml version="1.0" encoding="UTF-8"?>
<svg xmlns="http://www.w3.org/2000/svg" width="65.8mm" height="41.6mm" viewBox="46.980 -11.045 65.840 41.565">
<defs>
  <marker id="a1" markerWidth="4" markerHeight="4" refX="3.5" refY="2" orient="auto">
    <path d="M0,0 L4,2 L0,4 Z" fill="#444"/></marker>
  <marker id="a2" markerWidth="4" markerHeight="4" refX="0.5" refY="2" orient="auto">
    <path d="M4,0 L0,2 L4,4 Z" fill="#444"/></marker>
</defs>
<rect x="46.980" y="-11.045" width="65.840" height="41.565" fill="#e8e8e8"/>
<text x="88.900" y="-9.845" text-anchor="middle" font-family="sans-serif" font-size="0.9" font-weight="bold" fill="#222">10 in half-ring cover — radial cross-section  ID 5.750 in / OD 8.250 in</text>
<text x="88.900" y="-8.545" text-anchor="middle" font-family="sans-serif" font-size="0.65" font-weight="normal" fill="#666">1:1 scale • ring enters from top (z5) • seats at z3 • gray = printed cover, blue = magnet, dk-gray = steel ring</text>
<rect x="80.600" y="1.100" width="20.000" height="2.000" fill="#2e6bb0" fill-opacity="0.5" stroke="none" rx="0.300" ry="0.300"/>
<rect x="76.200" y="3.100" width="25.400" height="3.175" fill="#777" fill-opacity="0.5" stroke="none" rx="0.150" ry="0.150"/>
<text x="88.900" y="4.987" text-anchor="middle" font-family="sans-serif" font-size="0.7" font-weight="normal" fill="white">steel (ref)</text>
<text x="90.600" y="2.400" text-anchor="middle" font-family="sans-serif" font-size="0.7" font-weight="normal" fill="white">magnet (ref)</text>
<g xmlns="http://www.w3.org/2000/svg" transform="scale(1,-1)" stroke-linecap="round">
    <g fill="rgb(214,214,214)" stroke="rgb(0,0,0)" stroke-width="0.02" id="cover">
      <path d="M 104.575,0.0 L 73.225,0.0 L 73.025,-0.2 L 73.025,-8.275 L 73.225,-8.475 L 74.8,-8.475 L 75.114692,-8.311154 Q 75.751894,-7.400865 76.4,-6.475 L 76.4,-6.275 L 76.15,-6.275 L 76.15,-6.268417 L 76.135295,-6.266481 L 76.075,-6.241506 L 76.023223,-6.201777 L 75.983493,-6.15 L 75.958518,-6.089705 L 75.95,-6.025 L 75.958518,-5.960295 L 75.983493,-5.9 L 76.023223,-5.848223 L 76.075,-5.808494 L 76.135295,-5.783519 L 76.15,-5.781583 L 76.15,-3.33 L 76.085295,-3.321481 L 76.025,-3.296506 L 75.973223,-3.256777 L 75.933493,-3.205 L 75.908518,-3.144705 L 75.9,-3.08 L 75.908518,-3.015295 L 75.933493,-2.955 L 75.973223,-2.903223 L 76.025,-2.863494 L 76.085295,-2.838519 L 76.15,-2.83 L 76.214705,-2.838519 L 76.275,-2.863494 L 76.326777,-2.903223 L 76.366506,-2.955 L 76.391481,-3.015295 L 76.4,-3.08 L 80.378,-3.08 L 80.55,-2.65 L 80.55,-1.5 A 0.25,0.25 -90.0 0,0 80.55,-1.0 L 100.65,-1.0 A 0.25,0.25 -90.0 0,0 100.65,-1.5 L 100.65,-2.65 L 100.822,-3.08 L 101.4,-3.08 L 101.408518,-3.015295 L 101.433494,-2.955 L 101.473223,-2.903223 L 101.525,-2.863494 L 101.585295,-2.838519 L 101.65,-2.83 L 101.714705,-2.838519 L 101.775,-2.863494 L 101.826777,-2.903223 L 101.866506,-2.955 L 101.891481,-3.015295 L 101.9,-3.08 L 101.891481,-3.144705 L 101.866506,-3.205 L 101.826777,-3.256777 L 101.775,-3.296506 L 101.714705,-3.321481 L 101.65,-3.33 L 101.65,-5.781583 L 101.664705,-5.783519 L 101.725,-5.808494 L 101.776777,-5.848223 L 101.816506,-5.9 L 101.841481,-5.960295 L 101.85,-6.025 L 101.841481,-6.089705 L 101.816506,-6.15 L 101.776777,-6.201777 L 101.725,-6.241506 L 101.664705,-6.266481 L 101.65,-6.268417 L 101.65,-6.275 L 101.4,-6.275 L 101.4,-6.475 Q 102.038606,-7.387295 102.685307,-8.311154 L 103.0,-8.475 L 104.575,-8.475 L 104.775,-8.275 L 104.775,-0.2 L 104.575,0.0" />
    </g>
  </g>

<line x1="70.425" y1="0.000" x2="71.025" y2="0.000" stroke="#444" stroke-width="0.08"/>
<line x1="70.425" y1="1.000" x2="71.025" y2="1.000" stroke="#444" stroke-width="0.08"/>
<line x1="71.025" y1="0.000" x2="71.025" y2="1.000" stroke="#444" stroke-width="0.08"/>
<text x="70.425" y="0.800" text-anchor="end" font-family="sans-serif" font-size="0.65" font-weight="normal" fill="#444">base 1.0</text>
<line x1="70.425" y1="1.000" x2="71.025" y2="1.000" stroke="#444" stroke-width="0.08"/>
<line x1="70.425" y1="3.100" x2="71.025" y2="3.100" stroke="#444" stroke-width="0.08"/>
<line x1="71.025" y1="1.000" x2="71.025" y2="3.100" stroke="#444" stroke-width="0.08"/>
<text x="70.425" y="2.350" text-anchor="end" font-family="sans-serif" font-size="0.65" font-weight="normal" fill="#444">magnet clr 2.1</text>
<line x1="70.425" y1="3.100" x2="71.025" y2="3.100" stroke="#444" stroke-width="0.08"/>
<line x1="70.425" y1="6.275" x2="71.025" y2="6.275" stroke="#444" stroke-width="0.08"/>
<line x1="71.025" y1="3.100" x2="71.025" y2="6.275" stroke="#444" stroke-width="0.08"/>
<text x="70.425" y="4.987" text-anchor="end" font-family="sans-serif" font-size="0.65" font-weight="normal" fill="#444">steel 3.175</text>
<line x1="70.425" y1="6.275" x2="71.025" y2="6.275" stroke="#444" stroke-width="0.08"/>
<line x1="70.425" y1="6.475" x2="71.025" y2="6.475" stroke="#444" stroke-width="0.08"/>
<line x1="71.025" y1="6.275" x2="71.025" y2="6.475" stroke="#444" stroke-width="0.08"/>
<text x="70.425" y="6.675" text-anchor="end" font-family="sans-serif" font-size="0.65" font-weight="normal" fill="#444">snap 0.2</text>
<line x1="70.425" y1="6.475" x2="71.025" y2="6.475" stroke="#444" stroke-width="0.08"/>
<line x1="70.425" y1="8.475" x2="71.025" y2="8.475" stroke="#444" stroke-width="0.08"/>
<line x1="71.025" y1="6.475" x2="71.025" y2="8.475" stroke="#444" stroke-width="0.08"/>
<text x="70.425" y="7.775" text-anchor="end" font-family="sans-serif" font-size="0.65" font-weight="normal" fill="#444">chamfer 2.0</text>
<line x1="76.000" y1="6.375" x2="76.000" y2="10.475" stroke="#444" stroke-width="0.07"/>
<text x="75.700" y="11.275" text-anchor="end" font-family="sans-serif" font-size="0.65" font-weight="normal" fill="#444">snap 0.2 mm</text>
<line x1="101.400" y1="6.375" x2="101.400" y2="10.475" stroke="#444" stroke-width="0.07"/>
<text x="101.700" y="11.275" text-anchor="start" font-family="sans-serif" font-size="0.65" font-weight="normal" fill="#444">snap 0.2 mm</text>
<line x1="73.025" y1="10.520" x2="73.025" y2="12.020" stroke="#bbb" stroke-width="0.12" stroke-dasharray="0.6,0.6"/>
<line x1="73.025" y1="12.020" x2="73.025" y2="19.220" stroke="#444" stroke-width="0.12"/>
<text x="73.025" y="21.020" text-anchor="middle" font-family="sans-serif" font-size="0.65" font-weight="normal" fill="#444" transform="rotate(-50,73.025,21.020)">cover ID 5.750 in</text>
<line x1="76.200" y1="10.520" x2="76.200" y2="12.020" stroke="#bbb" stroke-width="0.12" stroke-dasharray="0.6,0.6"/>
<line x1="76.200" y1="12.020" x2="76.200" y2="19.220" stroke="#444" stroke-width="0.12"/>
<text x="76.200" y="21.020" text-anchor="middle" font-family="sans-serif" font-size="0.65" font-weight="normal" fill="#444" transform="rotate(-50,76.200,21.020)">steel ID 6.000 in</text>
<line x1="101.600" y1="10.520" x2="101.600" y2="12.020" stroke="#bbb" stroke-width="0.12" stroke-dasharray="0.6,0.6"/>
<line x1="101.600" y1="12.020" x2="101.600" y2="19.220" stroke="#444" stroke-width="0.12"/>
<text x="101.600" y="21.020" text-anchor="middle" font-family="sans-serif" font-size="0.65" font-weight="normal" fill="#444" transform="rotate(-50,101.600,21.020)">steel OD 8.000 in</text>
<line x1="104.775" y1="10.520" x2="104.775" y2="12.020" stroke="#bbb" stroke-width="0.12" stroke-dasharray="0.6,0.6"/>
<line x1="104.775" y1="12.020" x2="104.775" y2="19.220" stroke="#444" stroke-width="0.12"/>
<text x="104.775" y="21.020" text-anchor="middle" font-family="sans-serif" font-size="0.65" font-weight="normal" fill="#444" transform="rotate(-50,104.775,21.020)">cover OD 8.250 in</text>
<line x1="73.025" y1="26.020" x2="76.200" y2="26.020" stroke="#444" stroke-width="0.15" marker-start="url(#a2)" marker-end="url(#a1)"/>
<text x="74.612" y="25.620" text-anchor="middle" font-family="sans-serif" font-size="0.65" font-weight="normal" fill="#444">wall 3.175 mm</text>
<line x1="101.600" y1="26.020" x2="104.775" y2="26.020" stroke="#444" stroke-width="0.15" marker-start="url(#a2)" marker-end="url(#a1)"/>
<text x="103.188" y="25.620" text-anchor="middle" font-family="sans-serif" font-size="0.65" font-weight="normal" fill="#444">wall 3.175 mm</text>
</svg>