<?xml version="1.0" encoding="UTF-8"?>
<svg xmlns="http://www.w3.org/2000/svg" width="265.0mm" height="170.0mm" viewBox="0 0 265.0 170.0">
  <title>10 in half-ring cover — top-side perspective</title>
  <defs>
    <marker id="arr" markerWidth="6" markerHeight="6" refX="5" refY="3" orient="auto">
      <path d="M0,0 L6,3 L0,6 Z" fill="#555"/>
    </marker>
    <marker id="arr2" markerWidth="6" markerHeight="6" refX="1" refY="3" orient="auto">
      <path d="M6,0 L0,3 L6,6 Z" fill="#555"/>
    </marker>
    <style>
      .dim { stroke: #555; stroke-width: 0.5; marker-start: url(#arr2); marker-end: url(#arr); }
      .callout { stroke: #555; stroke-width: 0.4; fill: none; marker-end: url(#arr); }
      .text { font-family: sans-serif; fill: #333; }
      .label { font-family: sans-serif; fill: #222; font-size: 4px; font-weight: bold; }
      .note { font-family: sans-serif; fill: #555; font-size: 2.8px; }
    </style>
  </defs>
  <rect width="265.0" height="170.0" fill="white"/>
  <text x="8" y="9" class="label">10 in Half Ring Over Magnets — top-side perspective</text>
  <text x="8" y="14.5" class="note">Oblique documentation view of the printed half ring with the top skin, underside capture volume, alignment wedges, and red outer tabs.</text>
  <polygon points="38.043,125.184 40.473,123.307 43.332,121.439 46.607,119.587 50.285,117.759 54.348,115.962 58.781,114.205 63.563,112.495 68.675,110.840 74.094,109.245 79.798,107.720 85.761,106.268 91.960,104.898 98.366,103.615 104.952,102.424 111.690,101.330 118.552,100.339 125.508,99.454 132.528,98.679 139.583,98.018 146.641,97.473 153.673,97.047 160.648,96.741 167.538,96.557 174.311,96.496 180.940,96.557 187.395,96.741 193.650,97.047 199.677,97.473 205.451,98.018 210.946,98.679 216.140,99.454 221.010,100.339 225.535,101.330 229.696,102.424 233.475,103.615 236.856,104.898 239.825,106.268 242.368,107.720 244.475,109.245 246.136,110.840 247.346,112.495 248.097,114.205 248.388,115.962 248.217,117.759 247.585,119.587 246.494,121.439 244.949,123.307 242.957,125.184 206.952,125.184 208.244,123.967 209.246,122.755 209.954,121.554 210.364,120.368 210.475,119.203 210.286,118.063 209.799,116.954 209.014,115.880 207.937,114.846 206.570,113.857 204.921,112.916 202.995,112.027 200.803,111.194 198.351,110.422 195.653,109.713 192.718,109.070 189.559,108.496 186.190,107.993 182.626,107.565 178.881,107.211 174.972,106.935 170.916,106.736 166.729,106.617 162.429,106.577 158.036,106.617 153.568,106.736 149.044,106.935 144.483,107.211 139.905,107.565 135.330,107.993 130.777,108.496 126.265,109.070 121.815,109.713 117.444,110.422 113.172,111.194 109.017,112.027 104.997,112.916 101.129,113.857 97.430,114.846 93.915,115.880 90.600,116.954 87.498,118.063 84.623,119.203 81.988,120.368 79.603,121.554 77.478,122.755 75.624,123.967 74.048,125.184" fill="#cdcdcd" stroke="#888" stroke-width="0.6"/>
  <polygon points="30.043,124.000 32.473,122.124 35.332,120.255 38.607,118.403 42.285,116.575 46.348,114.779 50.781,113.022 55.563,111.312 60.675,109.656 66.094,108.062 71.798,106.536 77.761,105.085 83.960,103.714 90.366,102.431 96.952,101.240 103.690,100.147 110.552,99.155 117.508,98.270 124.528,97.496 131.583,96.834 138.641,96.289 145.673,95.863 152.648,95.557 159.538,95.373 166.311,95.312 172.940,95.373 179.395,95.557 185.650,95.863 191.677,96.289 197.451,96.834 202.946,97.496 208.140,98.270 213.010,99.155 217.535,100.147 221.696,101.240 225.475,102.431 228.856,103.714 231.825,105.085 234.368,106.536 236.475,108.062 238.136,109.656 239.346,111.312 240.097,113.022 240.388,114.779 240.217,116.575 239.585,118.403 238.494,120.255 236.949,122.124 234.957,124.000 198.952,124.000 200.244,122.783 201.246,121.571 201.954,120.370 202.364,119.184 202.475,118.019 202.286,116.880 201.799,115.770 201.014,114.697 199.937,113.663 198.570,112.673 196.921,111.732 194.995,110.843 192.803,110.011 190.351,109.238 187.653,108.529 184.718,107.886 181.559,107.312 178.190,106.810 174.626,106.381 170.881,106.027 166.972,105.751 162.916,105.552 158.729,105.433 154.429,105.393 150.036,105.433 145.568,105.552 141.044,105.751 136.483,106.027 131.905,106.381 127.330,106.810 122.777,107.312 118.265,107.886 113.815,108.529 109.444,109.238 105.172,110.011 101.017,110.843 96.997,111.732 93.129,112.673 89.430,113.663 85.915,114.697 82.600,115.770 79.498,116.880 76.623,118.019 73.988,119.184 71.603,120.370 69.478,121.571 67.624,122.783 66.048,124.000" fill="#e7e7e7" stroke="#666" stroke-width="0.8"/>
  <polygon points="30.043,124.000 66.048,124.000 66.048,117.184 30.043,117.184" fill="#d8d8d8" stroke="#777" stroke-width="0.5"/>
  <polygon points="198.952,124.000 234.957,124.000 234.957,117.184 198.952,117.184" fill="#d8d8d8" stroke="#777" stroke-width="0.5"/>
  <polygon points="59.320,122.650 57.588,123.980 38.818,123.794 40.550,122.465" fill="#4a90d9" stroke="white" stroke-width="0.22" opacity="0.95"/>
  <polygon points="37.497,122.886 36.804,123.418 35.865,123.408 36.558,122.877" fill="#d9534f" stroke="#b13d3a" stroke-width="0.18"/>
  <polygon points="61.569,121.192 59.513,122.515 41.273,121.959 43.328,120.636" fill="#2e6bb0" stroke="white" stroke-width="0.22" opacity="0.95"/>
  <polygon points="40.249,121.006 39.427,121.535 38.515,121.507 39.337,120.978" fill="#d9534f" stroke="#b13d3a" stroke-width="0.18"/>
  <polygon points="64.163,119.748 61.795,121.058 44.172,120.134 46.541,118.824" fill="#4a90d9" stroke="white" stroke-width="0.22" opacity="0.95"/>
  <polygon points="43.451,119.140 42.504,119.664 41.622,119.618 42.570,119.094" fill="#d9534f" stroke="#b13d3a" stroke-width="0.18"/>
  <polygon points="67.090,118.325 64.420,119.615 47.502,118.328 50.172,117.038" fill="#2e6bb0" stroke="white" stroke-width="0.22" opacity="0.95"/>
  <polygon points="47.087,117.299 46.019,117.815 45.173,117.751 46.241,117.234" fill="#d9534f" stroke="#b13d3a" stroke-width="0.18"/>
  <polygon points="70.336,116.930 67.378,118.194 51.245,116.551 54.204,115.286" fill="#4a90d9" stroke="white" stroke-width="0.22" opacity="0.95"/>
  <polygon points="51.138,115.491 49.955,115.997 49.148,115.914 50.332,115.408" fill="#d9534f" stroke="#b13d3a" stroke-width="0.18"/>
  <polygon points="73.885,115.569 70.653,116.802 55.385,114.809 58.618,113.576" fill="#2e6bb0" stroke="white" stroke-width="0.22" opacity="0.95"/>
  <polygon points="55.587,113.724 54.293,114.218 53.530,114.118 54.823,113.625" fill="#d9534f" stroke="#b13d3a" stroke-width="0.18"/>
  <polygon points="77.720,114.250 74.229,115.445 59.900,113.113 63.391,111.917" fill="#4a90d9" stroke="white" stroke-width="0.22" opacity="0.95"/>
  <polygon points="60.409,112.009 59.013,112.487 58.297,112.370 59.693,111.892" fill="#d9534f" stroke="#b13d3a" stroke-width="0.18"/>
  <polygon points="81.821,112.978 78.088,114.130 64.769,111.470 68.501,110.318" fill="#2e6bb0" stroke="white" stroke-width="0.22" opacity="0.95"/>
  <polygon points="65.584,110.352 64.091,110.813 63.425,110.680 64.918,110.219" fill="#d9534f" stroke="#b13d3a" stroke-width="0.18"/>
  <polygon points="86.169,111.760 82.213,112.863 69.968,109.888 73.923,108.785" fill="#4a90d9" stroke="white" stroke-width="0.22" opacity="0.95"/>
  <polygon points="71.084,108.762 69.501,109.203 68.889,109.054 70.471,108.613" fill="#d9534f" stroke="#b13d3a" stroke-width="0.18"/>
  <polygon points="90.743,110.602 86.583,111.650 75.471,108.375 79.631,107.327" fill="#2e6bb0" stroke="white" stroke-width="0.22" opacity="0.95"/>
  <polygon points="76.883,107.247 75.219,107.666 74.663,107.502 76.327,107.083" fill="#d9534f" stroke="#b13d3a" stroke-width="0.18"/>
  <polygon points="95.520,109.510 91.177,110.498 81.253,106.939 85.596,105.950" fill="#4a90d9" stroke="white" stroke-width="0.22" opacity="0.95"/>
  <polygon points="82.953,105.814 81.216,106.209 80.720,106.031 82.457,105.636" fill="#d9534f" stroke="#b13d3a" stroke-width="0.18"/>
  <polygon points="100.478,108.488 95.972,109.412 87.284,105.585 91.789,104.662" fill="#2e6bb0" stroke="white" stroke-width="0.22" opacity="0.95"/>
  <polygon points="89.265,104.470 87.463,104.839 87.028,104.648 88.830,104.278" fill="#d9534f" stroke="#b13d3a" stroke-width="0.18"/>
  <polygon points="105.591,107.543 100.945,108.398 93.535,104.322 98.181,103.467" fill="#4a90d9" stroke="white" stroke-width="0.22" opacity="0.95"/>
  <polygon points="95.787,103.221 93.929,103.563 93.558,103.359 95.417,103.017" fill="#d9534f" stroke="#b13d3a" stroke-width="0.18"/>
  <polygon points="110.836,106.677 106.072,107.459 99.976,103.155 104.740,102.373" fill="#2e6bb0" stroke="white" stroke-width="0.22" opacity="0.95"/>
  <polygon points="102.488,102.074 100.583,102.387 100.278,102.172 102.184,101.859" fill="#d9534f" stroke="#b13d3a" stroke-width="0.18"/>
  <polygon points="116.186,105.897 111.327,106.602 106.576,102.090 111.435,101.385" fill="#4a90d9" stroke="white" stroke-width="0.22" opacity="0.95"/>
  <polygon points="109.336,101.035 107.392,101.317 107.155,101.091 109.098,100.809" fill="#d9534f" stroke="#b13d3a" stroke-width="0.18"/>
  <polygon points="121.616,105.205 116.686,105.829 113.302,101.132 118.232,100.507" fill="#2e6bb0" stroke="white" stroke-width="0.22" opacity="0.95"/>
  <polygon points="116.296,100.108 114.324,100.358 114.155,100.123 116.127,99.873" fill="#d9534f" stroke="#b13d3a" stroke-width="0.18"/>
  <polygon points="127.098,104.604 122.121,105.145 120.121,100.285 125.098,99.744" fill="#4a90d9" stroke="white" stroke-width="0.22" opacity="0.95"/>
  <polygon points="123.335,99.298 121.344,99.514 121.244,99.271 123.235,99.055" fill="#d9534f" stroke="#b13d3a" stroke-width="0.18"/>
  <polygon points="132.607,104.098 127.607,104.553 127.001,99.554 132.001,99.099" fill="#2e6bb0" stroke="white" stroke-width="0.22" opacity="0.95"/>
  <polygon points="130.419,98.608 128.419,98.790 128.389,98.540 130.389,98.358" fill="#d9534f" stroke="#b13d3a" stroke-width="0.18"/>
  <polygon points="138.116,103.690 133.118,104.056 133.908,98.943 138.906,98.576" fill="#4a90d9" stroke="white" stroke-width="0.22" opacity="0.95"/>
  <polygon points="137.513,98.043 135.514,98.190 135.553,97.934 137.552,97.787" fill="#d9534f" stroke="#b13d3a" stroke-width="0.18"/>
  <polygon points="143.597,103.380 138.625,103.657 140.807,98.453 145.779,98.177" fill="#2e6bb0" stroke="white" stroke-width="0.22" opacity="0.95"/>
  <polygon points="144.582,97.605 142.594,97.715 142.703,97.455 144.691,97.344" fill="#d9534f" stroke="#b13d3a" stroke-width="0.18"/>
  <polygon points="149.024,103.172 144.102,103.357 147.666,98.089 152.588,97.904" fill="#4a90d9" stroke="white" stroke-width="0.22" opacity="0.95"/>
  <polygon points="151.593,97.295 149.624,97.369 149.802,97.106 151.771,97.032" fill="#d9534f" stroke="#b13d3a" stroke-width="0.18"/>
  <polygon points="154.370,103.065 149.522,103.158 154.452,97.851 159.300,97.758" fill="#2e6bb0" stroke="white" stroke-width="0.22" opacity="0.95"/>
  <polygon points="158.511,97.117 156.572,97.154 156.818,96.888 158.757,96.851" fill="#d9534f" stroke="#b13d3a" stroke-width="0.18"/>
  <polygon points="159.610,103.060 154.860,103.060 161.130,97.740 165.880,97.740" fill="#4a90d9" stroke="white" stroke-width="0.22" opacity="0.95"/>
  <polygon points="165.302,97.069 163.402,97.069 163.715,96.803 165.615,96.803" fill="#d9534f" stroke="#b13d3a" stroke-width="0.18"/>
  <polygon points="164.718,103.158 160.089,103.065 167.669,97.758 172.298,97.851" fill="#2e6bb0" stroke="white" stroke-width="0.22" opacity="0.95"/>
  <polygon points="171.933,97.154 170.081,97.117 170.460,96.851 172.312,96.888" fill="#d9534f" stroke="#b13d3a" stroke-width="0.18"/>
  <polygon points="169.669,103.357 165.183,103.172 174.037,97.904 178.522,98.089" fill="#4a90d9" stroke="white" stroke-width="0.22" opacity="0.95"/>
  <polygon points="178.372,97.369 176.577,97.295 177.020,97.032 178.814,97.106" fill="#d9534f" stroke="#b13d3a" stroke-width="0.18"/>
  <polygon points="174.439,103.657 170.118,103.380 180.202,98.177 184.522,98.453" fill="#2e6bb0" stroke="white" stroke-width="0.22" opacity="0.95"/>
  <polygon points="184.587,97.715 182.859,97.605 183.363,97.344 185.091,97.455" fill="#d9534f" stroke="#b13d3a" stroke-width="0.18"/>
  <polygon points="179.004,104.056 174.870,103.690 186.135,98.576 190.269,98.943" fill="#4a90d9" stroke="white" stroke-width="0.22" opacity="0.95"/>
  <polygon points="190.549,98.190 188.895,98.043 189.459,97.787 191.112,97.934" fill="#d9534f" stroke="#b13d3a" stroke-width="0.18"/>
  <polygon points="183.343,104.553 179.416,104.098 191.806,99.099 195.734,99.554" fill="#2e6bb0" stroke="white" stroke-width="0.22" opacity="0.95"/>
  <polygon points="196.228,98.790 194.657,98.608 195.277,98.358 196.847,98.540" fill="#d9534f" stroke="#b13d3a" stroke-width="0.18"/>
  <polygon points="187.435,105.145 183.733,104.604 197.189,99.744 200.890,100.285" fill="#4a90d9" stroke="white" stroke-width="0.22" opacity="0.95"/>
  <polygon points="201.596,99.514 200.116,99.298 200.789,99.055 202.269,99.271" fill="#d9534f" stroke="#b13d3a" stroke-width="0.18"/>
  <polygon points="191.258,105.829 187.800,105.205 202.256,100.507 205.714,101.132" fill="#2e6bb0" stroke="white" stroke-width="0.22" opacity="0.95"/>
  <polygon points="206.628,100.358 205.245,100.108 205.968,99.873 207.351,100.123" fill="#d9534f" stroke="#b13d3a" stroke-width="0.18"/>
  <polygon points="194.795,106.602 191.598,105.897 206.984,101.385 210.181,102.090" fill="#4a90d9" stroke="white" stroke-width="0.22" opacity="0.95"/>
  <polygon points="211.299,101.317 210.020,101.035 210.789,100.809 212.068,101.091" fill="#d9534f" stroke="#b13d3a" stroke-width="0.18"/>
  <polygon points="198.029,107.459 195.108,106.677 211.348,102.373 214.270,103.155" fill="#2e6bb0" stroke="white" stroke-width="0.22" opacity="0.95"/>
  <polygon points="215.586,102.387 214.417,102.074 215.229,101.859 216.398,102.172" fill="#d9534f" stroke="#b13d3a" stroke-width="0.18"/>
  <polygon points="200.944,108.398 198.313,107.543 215.329,103.467 217.960,104.322" fill="#4a90d9" stroke="white" stroke-width="0.22" opacity="0.95"/>
  <polygon points="219.468,103.563 218.415,103.221 219.266,103.017 220.319,103.359" fill="#d9534f" stroke="#b13d3a" stroke-width="0.18"/>
  <polygon points="203.525,109.412 201.197,108.488 218.906,104.662 221.234,105.585" fill="#2e6bb0" stroke="white" stroke-width="0.22" opacity="0.95"/>
  <polygon points="222.926,104.839 221.995,104.470 222.880,104.278 223.812,104.648" fill="#d9534f" stroke="#b13d3a" stroke-width="0.18"/>
  <polygon points="205.760,110.498 203.747,109.510 222.062,105.950 224.075,106.939" fill="#4a90d9" stroke="white" stroke-width="0.22" opacity="0.95"/>
  <polygon points="225.944,106.209 225.139,105.814 226.054,105.636 226.860,106.031" fill="#d9534f" stroke="#b13d3a" stroke-width="0.18"/>
  <polygon points="207.638,111.650 205.949,110.602 224.782,107.327 226.471,108.375" fill="#2e6bb0" stroke="white" stroke-width="0.22" opacity="0.95"/>
  <polygon points="228.506,107.666 227.831,107.247 228.772,107.083 229.448,107.502" fill="#d9534f" stroke="#b13d3a" stroke-width="0.18"/>
  <polygon points="209.151,112.863 207.794,111.760 227.052,108.785 228.408,109.888" fill="#4a90d9" stroke="white" stroke-width="0.22" opacity="0.95"/>
  <polygon points="230.601,109.203 230.059,108.762 231.021,108.613 231.564,109.054" fill="#d9534f" stroke="#b13d3a" stroke-width="0.18"/>
  <polygon points="210.289,114.130 209.272,112.978 228.861,110.318 229.879,111.470" fill="#2e6bb0" stroke="white" stroke-width="0.22" opacity="0.95"/>
  <polygon points="232.218,110.813 231.811,110.352 232.791,110.219 233.198,110.680" fill="#d9534f" stroke="#b13d3a" stroke-width="0.18"/>
  <polygon points="211.049,115.445 210.376,114.250 230.201,111.917 230.875,113.113" fill="#4a90d9" stroke="white" stroke-width="0.22" opacity="0.95"/>
  <polygon points="233.349,112.487 233.080,112.009 234.071,111.892 234.340,112.370" fill="#d9534f" stroke="#b13d3a" stroke-width="0.18"/>
  <polygon points="211.426,116.802 211.100,115.569 231.065,113.576 231.391,114.809" fill="#2e6bb0" stroke="white" stroke-width="0.22" opacity="0.95"/>
  <polygon points="233.989,114.218 233.858,113.724 234.857,113.625 234.987,114.118" fill="#d9534f" stroke="#b13d3a" stroke-width="0.18"/>
  <polygon points="211.419,118.194 211.441,116.930 231.449,115.286 231.426,116.551" fill="#4a90d9" stroke="white" stroke-width="0.22" opacity="0.95"/>
  <polygon points="234.134,115.997 234.143,115.491 235.144,115.408 235.134,115.914" fill="#d9534f" stroke="#b13d3a" stroke-width="0.18"/>
  <polygon points="211.027,119.615 211.398,118.325 231.351,117.038 230.979,118.328" fill="#2e6bb0" stroke="white" stroke-width="0.22" opacity="0.95"/>
  <polygon points="233.784,117.815 233.933,117.299 234.931,117.234 234.782,117.751" fill="#d9534f" stroke="#b13d3a" stroke-width="0.18"/>
  <polygon points="210.252,121.058 210.971,119.748 230.771,118.824 230.052,120.134" fill="#4a90d9" stroke="white" stroke-width="0.22" opacity="0.95"/>
  <polygon points="232.941,119.664 233.228,119.140 234.218,119.094 233.931,119.618" fill="#d9534f" stroke="#b13d3a" stroke-width="0.18"/>
  <polygon points="209.099,122.515 210.161,121.192 229.712,120.636 228.650,121.959" fill="#2e6bb0" stroke="white" stroke-width="0.22" opacity="0.95"/>
  <polygon points="231.608,121.535 232.033,121.006 233.011,120.978 232.586,121.507" fill="#d9534f" stroke="#b13d3a" stroke-width="0.18"/>
  <polygon points="207.572,123.980 208.973,122.650 228.180,122.465 226.779,123.794" fill="#4a90d9" stroke="white" stroke-width="0.22" opacity="0.95"/>
  <polygon points="229.793,123.418 230.353,122.886 231.313,122.877 230.753,123.408" fill="#d9534f" stroke="#b13d3a" stroke-width="0.18"/>
  <path d="M 182,43 L 225,24" class="callout"/>
  <text x="227" y="22" class="text" font-size="3.1">1.0 mm top base</text>
  <text x="227" y="27" class="note">underside ribs drop below this skin</text>
  <path d="M 140,67 L 224,54" class="callout"/>
  <text x="226" y="52" class="text" font-size="3.1">alignment wedges follow the 45-magnet pitch</text>
  <text x="226" y="57" class="note">~2.09 mm at the 8 in steel OD, ~0.32 mm at the 6 in steel ID</text>
  <path d="M 181,106 L 229,98" class="callout"/>
  <text x="231" y="96" class="text" font-size="3.1">red tabs tighten the outer capture</text>
  <text x="231" y="101" class="note">2.0 mm wide × 1.0 mm overhang</text>
  <text x="8" y="159.000" class="note">This view is intentionally illustrative rather than a manufacturable solid model: it shows the semi-circular 5.508 in ID / 8.492 in OD cover, the magnet array, and the snap-on retention details requested for the documentation pass.</text>
</svg>
