<?xml version="1.0" encoding="UTF-8"?>
<svg xmlns="http://www.w3.org/2000/svg" width="265.0mm" height="170.0mm" viewBox="0 0 265.0 170.0">
  <title>10 in half-ring cover — top-side perspective</title>
  <defs>
    <marker id="arr" markerWidth="6" markerHeight="6" refX="5" refY="3" orient="auto">
      <path d="M0,0 L6,3 L0,6 Z" fill="#555"/>
    </marker>
    <marker id="arr2" markerWidth="6" markerHeight="6" refX="1" refY="3" orient="auto">
      <path d="M6,0 L0,3 L6,6 Z" fill="#555"/>
    </marker>
    <style>
      .dim { stroke: #555; stroke-width: 0.5; marker-start: url(#arr2); marker-end: url(#arr); }
      .callout { stroke: #555; stroke-width: 0.4; fill: none; marker-end: url(#arr); }
      .text { font-family: sans-serif; fill: #333; }
      .label { font-family: sans-serif; fill: #222; font-size: 4px; font-weight: bold; }
      .note { font-family: sans-serif; fill: #555; font-size: 2.8px; }
    </style>
  </defs>
  <rect width="265.0" height="170.0" fill="white"/>
  <text x="8" y="9" class="label">10 in Half Ring Over Magnets — top-side perspective</text>
  <text x="8" y="14.5" class="note">Oblique documentation view of the printed half ring with the top skin, underside capture volume, alignment wedges, and red outer tabs.</text>
  <polygon points="40.964,123.949 43.325,122.126 46.103,120.311 49.284,118.512 52.857,116.735 56.804,114.990 61.110,113.283 65.756,111.622 70.723,110.014 75.987,108.465 81.529,106.982 87.322,105.573 93.344,104.242 99.567,102.995 105.965,101.838 112.512,100.776 119.178,99.812 125.936,98.953 132.756,98.200 139.609,97.558 146.466,97.028 153.297,96.614 160.074,96.317 166.767,96.138 173.347,96.079 179.787,96.138 186.058,96.317 192.134,96.614 197.990,97.028 203.599,97.558 208.938,98.200 213.983,98.953 218.714,99.812 223.111,100.776 227.153,101.838 230.824,102.995 234.109,104.242 236.993,105.573 239.463,106.982 241.510,108.465 243.124,110.014 244.299,111.622 245.029,113.283 245.312,114.990 245.146,116.735 244.532,118.512 243.472,120.311 241.971,122.126 240.036,123.949 209.874,123.949 211.223,122.678 212.268,121.413 213.007,120.159 213.435,118.921 213.551,117.705 213.354,116.515 212.845,115.357 212.026,114.236 210.901,113.157 209.474,112.124 207.753,111.141 205.743,110.213 203.453,109.345 200.895,108.538 198.077,107.798 195.013,107.127 191.716,106.527 188.199,106.003 184.478,105.555 180.569,105.186 176.488,104.897 172.253,104.690 167.882,104.566 163.393,104.524 158.807,104.566 154.142,104.690 149.419,104.897 144.658,105.186 139.879,105.555 135.103,106.003 130.349,106.527 125.639,107.127 120.993,107.798 116.430,108.538 111.971,109.345 107.633,110.213 103.437,111.141 99.399,112.124 95.537,113.157 91.867,114.236 88.406,115.357 85.168,116.515 82.167,117.705 79.415,118.921 76.926,120.159 74.708,121.413 72.772,122.678 71.126,123.949" fill="#cdcdcd" stroke="#888" stroke-width="0.6"/>
  <polygon points="32.964,124.000 35.325,122.177 38.103,120.362 41.284,118.563 44.857,116.787 48.804,115.041 53.110,113.335 57.756,111.673 62.723,110.065 67.987,108.516 73.529,107.034 79.322,105.624 85.344,104.293 91.567,103.046 97.965,101.889 104.512,100.827 111.178,99.864 117.936,99.004 124.756,98.251 131.609,97.609 138.466,97.080 145.297,96.665 152.074,96.368 158.767,96.190 165.347,96.130 171.787,96.190 178.058,96.368 184.134,96.665 189.990,97.080 195.599,97.609 200.938,98.251 205.983,99.004 210.714,99.864 215.111,100.827 219.153,101.889 222.824,103.046 226.109,104.293 228.993,105.624 231.463,107.034 233.510,108.516 235.124,110.065 236.299,111.673 237.029,113.335 237.312,115.041 237.146,116.787 236.532,118.563 235.472,120.362 233.971,122.177 232.036,124.000 201.874,124.000 203.223,122.730 204.268,121.465 205.007,120.210 205.435,118.973 205.551,117.756 205.354,116.567 204.845,115.409 204.026,114.288 202.901,113.208 201.474,112.175 199.753,111.192 197.743,110.265 195.453,109.396 192.895,108.589 190.077,107.849 187.013,107.178 183.716,106.579 180.199,106.054 176.478,105.606 172.569,105.237 168.488,104.949 164.253,104.742 159.882,104.617 155.393,104.575 150.807,104.617 146.142,104.742 141.419,104.949 136.658,105.237 131.879,105.606 127.103,106.054 122.349,106.579 117.639,107.178 112.993,107.849 108.430,108.589 103.971,109.396 99.633,110.265 95.437,111.192 91.399,112.175 87.537,113.208 83.867,114.288 80.406,115.409 77.168,116.567 74.167,117.756 71.415,118.973 68.926,120.210 66.708,121.465 64.772,122.730 63.126,124.000" fill="#e7e7e7" stroke="#666" stroke-width="0.8"/>
  <polygon points="32.964,124.000 63.126,124.000 63.126,115.949 32.964,115.949" fill="#d8d8d8" stroke="#777" stroke-width="0.5"/>
  <polygon points="201.874,124.000 232.036,124.000 232.036,115.949 201.874,115.949" fill="#d8d8d8" stroke="#777" stroke-width="0.5"/>
  <polygon points="59.320,122.650 57.588,123.980 38.818,123.794 40.550,122.465" fill="#4a90d9" stroke="white" stroke-width="0.22" opacity="0.95"/>
  <polygon points="37.497,122.886 36.804,123.418 35.865,123.408 36.558,122.877" fill="#d9534f" stroke="#b13d3a" stroke-width="0.18"/>
  <polygon points="61.569,121.192 59.513,122.515 41.273,121.959 43.328,120.636" fill="#2e6bb0" stroke="white" stroke-width="0.22" opacity="0.95"/>
  <polygon points="40.249,121.006 39.427,121.535 38.515,121.507 39.337,120.978" fill="#d9534f" stroke="#b13d3a" stroke-width="0.18"/>
  <polygon points="64.163,119.748 61.795,121.058 44.172,120.134 46.541,118.824" fill="#4a90d9" stroke="white" stroke-width="0.22" opacity="0.95"/>
  <polygon points="43.451,119.140 42.504,119.664 41.622,119.618 42.570,119.094" fill="#d9534f" stroke="#b13d3a" stroke-width="0.18"/>
  <polygon points="67.090,118.325 64.420,119.615 47.502,118.328 50.172,117.038" fill="#2e6bb0" stroke="white" stroke-width="0.22" opacity="0.95"/>
  <polygon points="47.087,117.299 46.019,117.815 45.173,117.751 46.241,117.234" fill="#d9534f" stroke="#b13d3a" stroke-width="0.18"/>
  <polygon points="70.336,116.930 67.378,118.194 51.245,116.551 54.204,115.286" fill="#4a90d9" stroke="white" stroke-width="0.22" opacity="0.95"/>
  <polygon points="51.138,115.491 49.955,115.997 49.148,115.914 50.332,115.408" fill="#d9534f" stroke="#b13d3a" stroke-width="0.18"/>
  <polygon points="73.885,115.569 70.653,116.802 55.385,114.809 58.618,113.576" fill="#2e6bb0" stroke="white" stroke-width="0.22" opacity="0.95"/>
  <polygon points="55.587,113.724 54.293,114.218 53.530,114.118 54.823,113.625" fill="#d9534f" stroke="#b13d3a" stroke-width="0.18"/>
  <polygon points="77.720,114.250 74.229,115.445 59.900,113.113 63.391,111.917" fill="#4a90d9" stroke="white" stroke-width="0.22" opacity="0.95"/>
  <polygon points="60.409,112.009 59.013,112.487 58.297,112.370 59.693,111.892" fill="#d9534f" stroke="#b13d3a" stroke-width="0.18"/>
  <polygon points="81.821,112.978 78.088,114.130 64.769,111.470 68.501,110.318" fill="#2e6bb0" stroke="white" stroke-width="0.22" opacity="0.95"/>
  <polygon points="65.584,110.352 64.091,110.813 63.425,110.680 64.918,110.219" fill="#d9534f" stroke="#b13d3a" stroke-width="0.18"/>
  <polygon points="86.169,111.760 82.213,112.863 69.968,109.888 73.923,108.785" fill="#4a90d9" stroke="white" stroke-width="0.22" opacity="0.95"/>
  <polygon points="71.084,108.762 69.501,109.203 68.889,109.054 70.471,108.613" fill="#d9534f" stroke="#b13d3a" stroke-width="0.18"/>
  <polygon points="90.743,110.602 86.583,111.650 75.471,108.375 79.631,107.327" fill="#2e6bb0" stroke="white" stroke-width="0.22" opacity="0.95"/>
  <polygon points="76.883,107.247 75.219,107.666 74.663,107.502 76.327,107.083" fill="#d9534f" stroke="#b13d3a" stroke-width="0.18"/>
  <polygon points="95.520,109.510 91.177,110.498 81.253,106.939 85.596,105.950" fill="#4a90d9" stroke="white" stroke-width="0.22" opacity="0.95"/>
  <polygon points="82.953,105.814 81.216,106.209 80.720,106.031 82.457,105.636" fill="#d9534f" stroke="#b13d3a" stroke-width="0.18"/>
  <polygon points="100.478,108.488 95.972,109.412 87.284,105.585 91.789,104.662" fill="#2e6bb0" stroke="white" stroke-width="0.22" opacity="0.95"/>
  <polygon points="89.265,104.470 87.463,104.839 87.028,104.648 88.830,104.278" fill="#d9534f" stroke="#b13d3a" stroke-width="0.18"/>
  <polygon points="105.591,107.543 100.945,108.398 93.535,104.322 98.181,103.467" fill="#4a90d9" stroke="white" stroke-width="0.22" opacity="0.95"/>
  <polygon points="95.787,103.221 93.929,103.563 93.558,103.359 95.417,103.017" fill="#d9534f" stroke="#b13d3a" stroke-width="0.18"/>
  <polygon points="110.836,106.677 106.072,107.459 99.976,103.155 104.740,102.373" fill="#2e6bb0" stroke="white" stroke-width="0.22" opacity="0.95"/>
  <polygon points="102.488,102.074 100.583,102.387 100.278,102.172 102.184,101.859" fill="#d9534f" stroke="#b13d3a" stroke-width="0.18"/>
  <polygon points="116.186,105.897 111.327,106.602 106.576,102.090 111.435,101.385" fill="#4a90d9" stroke="white" stroke-width="0.22" opacity="0.95"/>
  <polygon points="109.336,101.035 107.392,101.317 107.155,101.091 109.098,100.809" fill="#d9534f" stroke="#b13d3a" stroke-width="0.18"/>
  <polygon points="121.616,105.205 116.686,105.829 113.302,101.132 118.232,100.507" fill="#2e6bb0" stroke="white" stroke-width="0.22" opacity="0.95"/>
  <polygon points="116.296,100.108 114.324,100.358 114.155,100.123 116.127,99.873" fill="#d9534f" stroke="#b13d3a" stroke-width="0.18"/>
  <polygon points="127.098,104.604 122.121,105.145 120.121,100.285 125.098,99.744" fill="#4a90d9" stroke="white" stroke-width="0.22" opacity="0.95"/>
  <polygon points="123.335,99.298 121.344,99.514 121.244,99.271 123.235,99.055" fill="#d9534f" stroke="#b13d3a" stroke-width="0.18"/>
  <polygon points="132.607,104.098 127.607,104.553 127.001,99.554 132.001,99.099" fill="#2e6bb0" stroke="white" stroke-width="0.22" opacity="0.95"/>
  <polygon points="130.419,98.608 128.419,98.790 128.389,98.540 130.389,98.358" fill="#d9534f" stroke="#b13d3a" stroke-width="0.18"/>
  <polygon points="138.116,103.690 133.118,104.056 133.908,98.943 138.906,98.576" fill="#4a90d9" stroke="white" stroke-width="0.22" opacity="0.95"/>
  <polygon points="137.513,98.043 135.514,98.190 135.553,97.934 137.552,97.787" fill="#d9534f" stroke="#b13d3a" stroke-width="0.18"/>
  <polygon points="143.597,103.380 138.625,103.657 140.807,98.453 145.779,98.177" fill="#2e6bb0" stroke="white" stroke-width="0.22" opacity="0.95"/>
  <polygon points="144.582,97.605 142.594,97.715 142.703,97.455 144.691,97.344" fill="#d9534f" stroke="#b13d3a" stroke-width="0.18"/>
  <polygon points="149.024,103.172 144.102,103.357 147.666,98.089 152.588,97.904" fill="#4a90d9" stroke="white" stroke-width="0.22" opacity="0.95"/>
  <polygon points="151.593,97.295 149.624,97.369 149.802,97.106 151.771,97.032" fill="#d9534f" stroke="#b13d3a" stroke-width="0.18"/>
  <polygon points="154.370,103.065 149.522,103.158 154.452,97.851 159.300,97.758" fill="#2e6bb0" stroke="white" stroke-width="0.22" opacity="0.95"/>
  <polygon points="158.511,97.117 156.572,97.154 156.818,96.888 158.757,96.851" fill="#d9534f" stroke="#b13d3a" stroke-width="0.18"/>
  <polygon points="159.610,103.060 154.860,103.060 161.130,97.740 165.880,97.740" fill="#4a90d9" stroke="white" stroke-width="0.22" opacity="0.95"/>
  <polygon points="165.302,97.069 163.402,97.069 163.715,96.803 165.615,96.803" fill="#d9534f" stroke="#b13d3a" stroke-width="0.18"/>
  <polygon points="164.718,103.158 160.089,103.065 167.669,97.758 172.298,97.851" fill="#2e6bb0" stroke="white" stroke-width="0.22" opacity="0.95"/>
  <polygon points="171.933,97.154 170.081,97.117 170.460,96.851 172.312,96.888" fill="#d9534f" stroke="#b13d3a" stroke-width="0.18"/>
  <polygon points="169.669,103.357 165.183,103.172 174.037,97.904 178.522,98.089" fill="#4a90d9" stroke="white" stroke-width="0.22" opacity="0.95"/>
  <polygon points="178.372,97.369 176.577,97.295 177.020,97.032 178.814,97.106" fill="#d9534f" stroke="#b13d3a" stroke-width="0.18"/>
  <polygon points="174.439,103.657 170.118,103.380 180.202,98.177 184.522,98.453" fill="#2e6bb0" stroke="white" stroke-width="0.22" opacity="0.95"/>
  <polygon points="184.587,97.715 182.859,97.605 183.363,97.344 185.091,97.455" fill="#d9534f" stroke="#b13d3a" stroke-width="0.18"/>
  <polygon points="179.004,104.056 174.870,103.690 186.135,98.576 190.269,98.943" fill="#4a90d9" stroke="white" stroke-width="0.22" opacity="0.95"/>
  <polygon points="190.549,98.190 188.895,98.043 189.459,97.787 191.112,97.934" fill="#d9534f" stroke="#b13d3a" stroke-width="0.18"/>
  <polygon points="183.343,104.553 179.416,104.098 191.806,99.099 195.734,99.554" fill="#2e6bb0" stroke="white" stroke-width="0.22" opacity="0.95"/>
  <polygon points="196.228,98.790 194.657,98.608 195.277,98.358 196.847,98.540" fill="#d9534f" stroke="#b13d3a" stroke-width="0.18"/>
  <polygon points="187.435,105.145 183.733,104.604 197.189,99.744 200.890,100.285" fill="#4a90d9" stroke="white" stroke-width="0.22" opacity="0.95"/>
  <polygon points="201.596,99.514 200.116,99.298 200.789,99.055 202.269,99.271" fill="#d9534f" stroke="#b13d3a" stroke-width="0.18"/>
  <polygon points="191.258,105.829 187.800,105.205 202.256,100.507 205.714,101.132" fill="#2e6bb0" stroke="white" stroke-width="0.22" opacity="0.95"/>
  <polygon points="206.628,100.358 205.245,100.108 205.968,99.873 207.351,100.123" fill="#d9534f" stroke="#b13d3a" stroke-width="0.18"/>
  <polygon points="194.795,106.602 191.598,105.897 206.984,101.385 210.181,102.090" fill="#4a90d9" stroke="white" stroke-width="0.22" opacity="0.95"/>
  <polygon points="211.299,101.317 210.020,101.035 210.789,100.809 212.068,101.091" fill="#d9534f" stroke="#b13d3a" stroke-width="0.18"/>
  <polygon points="198.029,107.459 195.108,106.677 211.348,102.373 214.270,103.155" fill="#2e6bb0" stroke="white" stroke-width="0.22" opacity="0.95"/>
  <polygon points="215.586,102.387 214.417,102.074 215.229,101.859 216.398,102.172" fill="#d9534f" stroke="#b13d3a" stroke-width="0.18"/>
  <polygon points="200.944,108.398 198.313,107.543 215.329,103.467 217.960,104.322" fill="#4a90d9" stroke="white" stroke-width="0.22" opacity="0.95"/>
  <polygon points="219.468,103.563 218.415,103.221 219.266,103.017 220.319,103.359" fill="#d9534f" stroke="#b13d3a" stroke-width="0.18"/>
  <polygon points="203.525,109.412 201.197,108.488 218.906,104.662 221.234,105.585" fill="#2e6bb0" stroke="white" stroke-width="0.22" opacity="0.95"/>
  <polygon points="222.926,104.839 221.995,104.470 222.880,104.278 223.812,104.648" fill="#d9534f" stroke="#b13d3a" stroke-width="0.18"/>
  <polygon points="205.760,110.498 203.747,109.510 222.062,105.950 224.075,106.939" fill="#4a90d9" stroke="white" stroke-width="0.22" opacity="0.95"/>
  <polygon points="225.944,106.209 225.139,105.814 226.054,105.636 226.860,106.031" fill="#d9534f" stroke="#b13d3a" stroke-width="0.18"/>
  <polygon points="207.638,111.650 205.949,110.602 224.782,107.327 226.471,108.375" fill="#2e6bb0" stroke="white" stroke-width="0.22" opacity="0.95"/>
  <polygon points="228.506,107.666 227.831,107.247 228.772,107.083 229.448,107.502" fill="#d9534f" stroke="#b13d3a" stroke-width="0.18"/>
  <polygon points="209.151,112.863 207.794,111.760 227.052,108.785 228.408,109.888" fill="#4a90d9" stroke="white" stroke-width="0.22" opacity="0.95"/>
  <polygon points="230.601,109.203 230.059,108.762 231.021,108.613 231.564,109.054" fill="#d9534f" stroke="#b13d3a" stroke-width="0.18"/>
  <polygon points="210.289,114.130 209.272,112.978 228.861,110.318 229.879,111.470" fill="#2e6bb0" stroke="white" stroke-width="0.22" opacity="0.95"/>
  <polygon points="232.218,110.813 231.811,110.352 232.791,110.219 233.198,110.680" fill="#d9534f" stroke="#b13d3a" stroke-width="0.18"/>
  <polygon points="211.049,115.445 210.376,114.250 230.201,111.917 230.875,113.113" fill="#4a90d9" stroke="white" stroke-width="0.22" opacity="0.95"/>
  <polygon points="233.349,112.487 233.080,112.009 234.071,111.892 234.340,112.370" fill="#d9534f" stroke="#b13d3a" stroke-width="0.18"/>
  <polygon points="211.426,116.802 211.100,115.569 231.065,113.576 231.391,114.809" fill="#2e6bb0" stroke="white" stroke-width="0.22" opacity="0.95"/>
  <polygon points="233.989,114.218 233.858,113.724 234.857,113.625 234.987,114.118" fill="#d9534f" stroke="#b13d3a" stroke-width="0.18"/>
  <polygon points="211.419,118.194 211.441,116.930 231.449,115.286 231.426,116.551" fill="#4a90d9" stroke="white" stroke-width="0.22" opacity="0.95"/>
  <polygon points="234.134,115.997 234.143,115.491 235.144,115.408 235.134,115.914" fill="#d9534f" stroke="#b13d3a" stroke-width="0.18"/>
  <polygon points="211.027,119.615 211.398,118.325 231.351,117.038 230.979,118.328" fill="#2e6bb0" stroke="white" stroke-width="0.22" opacity="0.95"/>
  <polygon points="233.784,117.815 233.933,117.299 234.931,117.234 234.782,117.751" fill="#d9534f" stroke="#b13d3a" stroke-width="0.18"/>
  <polygon points="210.252,121.058 210.971,119.748 230.771,118.824 230.052,120.134" fill="#4a90d9" stroke="white" stroke-width="0.22" opacity="0.95"/>
  <polygon points="232.941,119.664 233.228,119.140 234.218,119.094 233.931,119.618" fill="#d9534f" stroke="#b13d3a" stroke-width="0.18"/>
  <polygon points="209.099,122.515 210.161,121.192 229.712,120.636 228.650,121.959" fill="#2e6bb0" stroke="white" stroke-width="0.22" opacity="0.95"/>
  <polygon points="231.608,121.535 232.033,121.006 233.011,120.978 232.586,121.507" fill="#d9534f" stroke="#b13d3a" stroke-width="0.18"/>
  <polygon points="207.572,123.980 208.973,122.650 228.180,122.465 226.779,123.794" fill="#4a90d9" stroke="white" stroke-width="0.22" opacity="0.95"/>
  <polygon points="229.793,123.418 230.353,122.886 231.313,122.877 230.753,123.408" fill="#d9534f" stroke="#b13d3a" stroke-width="0.18"/>
  <path d="M 182,43 L 225,24" class="callout"/>
  <text x="227" y="22" class="text" font-size="3.1">1.0 mm top base</text>
  <text x="227" y="27" class="note">underside ribs drop below this skin</text>
  <path d="M 140,67 L 224,54" class="callout"/>
  <text x="226" y="52" class="text" font-size="3.1">alignment wedges follow the 45-magnet pitch</text>
  <text x="226" y="57" class="note">~2.09 mm at the 8 in steel OD, ~0.32 mm at the 6 in steel ID</text>
  <path d="M 181,106 L 229,98" class="callout"/>
  <text x="231" y="96" class="text" font-size="3.1">red tabs tighten the outer capture</text>
  <text x="231" y="101" class="note">2.0 mm wide × 1.0 mm overhang</text>
  <text x="8" y="159.000" class="note">This view is intentionally illustrative rather than a manufacturable solid model: it shows the semi-circular 5.750 in ID / 8.250 in OD cover, the magnet array, and the snap-on retention details requested for the documentation pass.</text>
</svg>
